<?xml version="1.0" standalone="no"?>
<!DOCTYPE svg PUBLIC "-//W3C//DTD SVG 1.1//EN" "http://www.w3.org/Graphics/SVG/1.1/DTD/svg11.dtd" >
<svg xmlns="http://www.w3.org/2000/svg" xmlns:xlink="http://www.w3.org/1999/xlink" version="1.1">
<metadata>
Created by FontForge 20201107 at Tue Feb 26 16:00:48 2002
 By Unknown
Brown is a trademark of Shinn Type Foundry. Brown is published by Shinn Type Foundry. Copyright(c) 2002 by Nick Shinn.
</metadata>
<defs>
<font id="BrownLight" horiz-adv-x="248" >
  <font-face 
    font-family="BrownLight"
    font-weight="300"
    font-stretch="normal"
    units-per-em="1000"
    panose-1="0 0 3 0 0 0 0 0 0 0"
    ascent="800"
    descent="-200"
    x-height="500"
    cap-height="694"
    bbox="-177 -198 1060 903"
    underline-thickness="66"
    underline-position="-166"
    unicode-range="U+0020-F002"
  />
<missing-glyph horiz-adv-x="500" 
d="M63 0v753h375v-753h-375zM125 63h250v628h-250v-628z" />
    <glyph glyph-name=".notdef" horiz-adv-x="500" 
d="M63 0v753h375v-753h-375zM125 63h250v628h-250v-628z" />
    <glyph glyph-name="glyph1" horiz-adv-x="0" 
 />
    <glyph glyph-name="glyph2" horiz-adv-x="258" 
 />
    <glyph glyph-name="space" unicode=" " horiz-adv-x="258" 
 />
    <glyph glyph-name="exclam" unicode="!" horiz-adv-x="331" 
d="M213 695q0 -56 -9 -260q-9 -197 -14 -261q-11 2 -22 2q-10 0 -28 -2q-5 63 -13 260q-9 203 -9 261q24 -4 50 -4t45 4zM209 0q-21 5 -41 5q-18 0 -46 -5q2 20 2 46q0 27 -2 46q21 -2 41 -2q18 0 46 2q-2 -21 -2 -50q0 -26 2 -42z" />
    <glyph glyph-name="quotedbl" unicode="&#x22;" horiz-adv-x="364" 
d="M304 694q-13 -171 -15 -276q-13 3 -27 3q-12 0 -31 -3q-4 165 -14 276q19 -2 47 -2q27 0 40 2zM147 694q-13 -138 -14 -276q-13 2 -32 2q-18 0 -27 -2q-2 147 -14 276q15 -2 41 -2q28 0 46 2z" />
    <glyph glyph-name="numbersign" unicode="#" horiz-adv-x="591" 
d="M560 495q-6 -22 -10 -71q-75 4 -90 4q-18 0 -21 -18q-22 -115 -22 -134q0 -4 7 -4q14 0 100 5q-9 -26 -9 -70q-51 4 -90 4q-13 0 -16 -3t-6 -19q-10 -71 -28 -189q-17 4 -35 4q-14 0 -40 -4q38 216 38 210q0 3 -7 3h-115q-14 0 -18 -3t-6 -19l-27 -191q-26 4 -35 4
q-19 0 -40 -4q37 196 37 209q0 4 -5 4q5 0 -107 -5q9 31 11 69q61 -4 92 -4q13 0 17 3t6 16q21 108 21 131q0 6 -6 6t-105 -5q7 25 12 70q3 0 40 -2q32 -1 50 -1q21 0 24 18q14 78 25 185q22 -3 41 -3q18 0 35 3q-36 -184 -36 -200q0 -4 6 -4h118q13 0 16.5 3t5.5 16
q8 51 27 185q23 -2 39 -2q17 0 33 2q-36 -194 -36 -201q0 -3 4 -3q7 0 105 5zM374 425q0 4 -6 4h-116q-22 0 -26 -20q-20 -110 -20 -132q0 -5 6 -5h117q14 0 18 4t7 19q20 107 20 130z" />
    <glyph glyph-name="dollar" unicode="$" horiz-adv-x="545" 
d="M489 206q0 -165 -167 -194l-19 -3q-6 -3 -6 -15q0 -19 1 -64q-15 4 -30 4t-30 -4q0 7 1 33q1 21 1 33q0 15 -16 17q-123 15 -159 118q-13 36 -14 75q14 -4 36 -4q20 0 36 3q0 -2 1 -9q7 -51 28 -78t65 -40q10 -3 14 -3q10 0 10 21l1 219q0 18 -3.5 22t-20.5 10
q-152 54 -152 178q0 66 41 110t112 56q15 2 16 3q5 3 5 14q0 -5 -2 53q10 -3 28 -3t31 3q-1 -39 -1 -56q0 -11 16 -13q151 -15 159 -164q-17 4 -34 4q-20 0 -37 -5q-7 46 -19 64q-18 27 -67 39l-13 3q-5 0 -5 -15q0 -25 -1 -95q-1 -60 -1 -95q0 -20 5 -24q2 -3 21 -9
q85 -28 125 -69q44 -46 44 -120zM244 420q0 5 -1 14t-1 14q0 8 1 23v24q0 22 -2 122q0 16 -9 16q-2 0 -10 -2q-86 -22 -86 -98q0 -67 79 -104q28 -13 26 -13q3 0 3 4zM420 190q0 52 -26 81q-22 24 -78 46q-2 1 -10.5 6.5t-11.5 5.5t-3 -6q0 -4 1.5 -15.5t1.5 -16.5l1 -195
q0 -23 9 -23q4 0 13 2q103 23 103 115z" />
    <glyph glyph-name="percent" unicode="%" horiz-adv-x="758" 
d="M723 175q0 -83 -39 -134t-106 -51q-66 0 -105 50t-39 132q0 86 38.5 137t105.5 51q68 0 106.5 -50t38.5 -135zM633 694q-60 -97 -416 -694q-14 5 -33 5t-41 -5q113 178 416 694q18 -4 38 -4q19 0 36 4zM334 517q0 -83 -39 -133.5t-106 -50.5q-66 0 -105 50.5t-39 131.5
q0 86 38.5 137t105.5 51q68 0 106.5 -50.5t38.5 -135.5zM657 171q0 75 -17.5 106t-61.5 31q-79 0 -79 -133q0 -132 80 -132q78 0 78 128zM268 513q0 73 -18.5 105.5t-60.5 32.5q-79 0 -79 -133q0 -132 80 -132q78 0 78 127z" />
    <glyph glyph-name="ampersand" unicode="&#x26;" horiz-adv-x="727" 
d="M640 -3q-27 -8 -54 -8q-70 0 -119 57q-16 18 -17 18q-2 0 -22 -18q-39 -34 -71 -45.5t-85 -11.5q-217 0 -217 201q0 146 140 206q22 9 22 12t-7 11.5l-7 8.5q-47 78 -47 132q0 64 44 105.5t121 41.5q165 0 165 -146q0 -108 -146 -166q-24 -9 -24 -14q0 1 18 -26
q36 -55 100 -136q6 -7 14 -24q7 -12 10 -12q4 0 19 28q36 66 56 176q12 -3 41 -3q20 0 39 4q-23 -128 -91 -233q-13 -20 -13 -24q0 -6 13 -22q38 -46 81 -46q17 0 35 8q-3 -11 -3 -29q0 -26 5 -45zM412 558q0 87 -92 87q-89 0 -89 -78q0 -37 39 -109q11 -21 22 -21q8 0 21 6
q53 24 74 47q25 26 25 68zM415 122q0 4 -9 13q-5 6 -11 12q-70 92 -72 94q-32 43 -57 85q-16 27 -22 27t-21 -8q-49 -26 -69 -58t-20 -83q0 -147 135 -147q43 0 63 6q29 9 61 38q22 20 22 21z" />
    <glyph glyph-name="quotesingle" unicode="'" horiz-adv-x="207" 
d="M147 694q-11 -134 -14 -276q-9 2 -27 2q-19 0 -32 -2q-4 146 -14 276q19 -3 45 -3q24 0 42 3z" />
    <glyph glyph-name="parenleft" unicode="(" horiz-adv-x="354" 
d="M303 -152q-8 1 -28 1t-28 -1q-155 205 -155 440q0 240 153 429q8 -1 30 -1h2q18 0 26 1q-129 -184 -129 -426q0 -236 129 -443z" />
    <glyph glyph-name="parenright" unicode=")" horiz-adv-x="354" 
d="M262 289q0 -240 -153 -441q-19 2 -31 2q-13 0 -26 -2q129 205 129 443t-132 426q10 -2 29 -2t31 2q153 -191 153 -428z" />
    <glyph glyph-name="asterisk" unicode="*" horiz-adv-x="426" 
d="M402 545q-58 -14 -114 -31q-10 -2 -20 -3q-15 -4 -15 -10q0 -4 8.5 -11.5t10.5 -10.5q33 -45 79 -103q-29 -11 -51 -35q-40 64 -67 104q-4 8 -9 17t-10 9q-4 0 -8 -8q-6 -13 -7 -14q-39 -56 -73 -109q-18 21 -53 40q39 44 83 102q1 2 9 9t8 11q0 6 -9.5 7.5t-17.5 2.5
q-68 20 -122 32q17 30 21 61q41 -18 114 -41q3 -1 13 -6t14 -5q8 0 8 9q0 4 -2 11.5t-2 11.5q-2 54 -9 122q19 -3 35 -3q17 0 31 3q-2 -33 -5 -122q0 -4 -2.5 -12.5t-2.5 -11.5q0 -8 9 -8q4 0 13.5 4.5t12.5 5.5q52 16 110 41q2 -28 20 -59z" />
    <glyph glyph-name="plus" unicode="+" horiz-adv-x="570" 
d="M506 218l-161 1q-5 0 -11 1h-11q-9 0 -9 -8q0 -4 1 -11t1 -10l3 -179q-14 3 -31 3q-18 0 -37 -3l3 178q0 2 1 10t1 12q0 8 -8 8h-10q-8 -1 -11 -1l-163 -2q3 15 3 37q0 17 -3 34l164 -4q2 0 10 -1h11q7 0 7 10q0 4 -1 11t-1 9l-3 178q20 -3 36 -3q18 0 32 3l-3 -177
q0 -1 -1 -9t-1 -12q0 -10 8 -10h11q8 1 9 1l164 4q-3 -12 -3 -34q0 -17 3 -36z" />
    <glyph glyph-name="comma" unicode="," horiz-adv-x="241" 
d="M169 97q-13 -125 -49 -248q-9 1 -19 1q-9 0 -37 -2q23 117 23 249q23 -2 43 -2q19 0 39 2z" />
    <glyph glyph-name="hyphen" unicode="-" horiz-adv-x="273" 
d="M233 233q-45 3 -95 3q-59 0 -92 -3q4 15 4 34t-4 33q47 -4 91 -4q60 0 96 4q-4 -15 -4 -33q0 -15 4 -34z" />
    <glyph glyph-name="hyphen" unicode="&#x2010;" horiz-adv-x="273" 
d="M233 233q-45 3 -95 3q-59 0 -92 -3q4 15 4 34t-4 33q47 -4 91 -4q60 0 96 4q-4 -15 -4 -33q0 -15 4 -34z" />
    <glyph glyph-name="period" unicode="." horiz-adv-x="241" 
d="M166 0q-21 5 -41 5q-18 0 -46 -5q2 20 2 49t-2 48q21 -2 40 -2t47 2q-2 -21 -2 -52q0 -29 2 -45z" />
    <glyph glyph-name="slash" unicode="/" horiz-adv-x="429" 
d="M385 709q-153 -404 -307 -830q-19 4 -36 4q-16 0 -32 -4q142 365 305 829q14 -3 32 -3q21 0 38 4z" />
    <glyph glyph-name="zero" unicode="0" horiz-adv-x="537" 
d="M501 329q0 -341 -221 -341q-114 0 -169.5 85.5t-55.5 266.5q0 361 224 361q126 0 180 -113q42 -88 42 -259zM423 339q0 157 -35 228q-33 67 -109 67q-80 0 -113 -76q-31 -70 -31 -219q0 -162 37 -227q33 -58 107 -58q81 0 112.5 68t31.5 217z" />
    <glyph glyph-name="one" unicode="1" horiz-adv-x="329" 
d="M248 0q-21 4 -42 4q-19 0 -39 -4q3 157 3 328v176q0 8 1.5 22.5t1.5 19.5q0 11 -5 11q-4 0 -14 -10q-13 -11 -19 -14q-65 -30 -106 -40q4 15 4 37q0 21 -4 35q66 18 100 41q44 30 71 88q13 -3 23 -3t25 3q-2 -186 -2 -366q0 -191 2 -328z" />
    <glyph glyph-name="two" unicode="2" horiz-adv-x="537" 
d="M472 0q-81 4 -198 4q-112 0 -221 -4v9q0 67 -7 85q70 53 189 153q85 82 112 120q47 65 47 132q0 136 -135 136q-132 0 -132 -141v-25q-15 3 -37 3t-41 -3v13q0 104 64 164q59 56 149 56q97 0 153.5 -55.5t56.5 -148.5q0 -89 -65 -171q-68 -86 -253 -226
q-13 -8 -26.5 -16.5t-13.5 -14.5q0 -5 9 -5q6 0 19 2t19 2q139 1 311 7q-3 -18 -3 -39t3 -37z" />
    <glyph glyph-name="three" unicode="3" horiz-adv-x="537" 
d="M487 187q0 -86 -60 -141q-63 -57 -170 -57q-99 0 -156 55.5t-57 152.5q19 -4 39 -4q19 0 40 4q4 -142 135 -142q69 0 107 34.5t38 97.5q0 138 -142 138q-14 0 -37.5 -1.5t-37.5 -1.5h-12q3 17 3 33t-3 34h9q14 0 41.5 -2t41.5 -2q126 0 126 129q0 121 -132 121
q-118 0 -128 -126q-19 4 -38 4t-39 -4q3 86 62 139.5t146 53.5q97 0 154 -55q53 -51 53 -132q0 -97 -87 -141q-1 -1 -25 -6q-16 -4 -16 -11q0 -8 18 -11l25 -4q102 -46 102 -155z" />
    <glyph glyph-name="four" unicode="4" horiz-adv-x="537" 
d="M501 153q-38 2 -79 2q-17 0 -21 -4.5t-4 -21.5q0 -48 3 -129q-15 3 -37 3t-42 -3q2 85 2 128q0 20 -4 24t-24 4q-167 0 -260 -3q2 15 2 49v14q-1 10 -1 15q89 157 253 462q27 -2 45 -2q22 0 64 3q-2 -126 -2 -445q0 -19 3.5 -22.5t19.5 -3.5q10 0 40 1t42 1
q-4 -19 -4 -36q0 -19 4 -36zM325 354q0 33 -1 92t-1 86q0 33 1 58t1 19q0 19 -4 19q-3 0 -16 -27q-8 -20 -26 -57q-52 -99 -158 -297q-2 -3 -7.5 -10t-5.5 -9q0 -5 5 -5q3 0 10.5 1t10.5 1h14q10 -1 15 -1l135 -1q18 0 22 4t4 21z" />
    <glyph glyph-name="five" unicode="5" horiz-adv-x="526" 
d="M478 241q0 -113 -53 -179q-59 -72 -172 -72q-99 0 -150.5 54.5t-52.5 153.5q17 -3 41 -3q23 0 37 3q0 -141 126 -141q81 0 116 50q31 43 31 131q0 164 -141 164q-48 0 -75 -11q-33 -14 -58 -52q-24 11 -60 11q15 106 15 306v38q40 -3 130 -3q42 0 230 3q-5 -20 -5 -39
q0 -22 2 -34q-192 3 -265 3q-18 0 -22 -4t-5 -24q-1 -63 -8 -155q-6 -26 -6 -18q0 -7 7 -7q4 0 11 7q44 46 124 46q95 0 149 -60t54 -168z" />
    <glyph glyph-name="six" unicode="6" horiz-adv-x="537" 
d="M492 219q0 -108 -56.5 -169t-155.5 -61q-225 0 -225 329q0 384 234 384q90 0 139 -46.5t50 -134.5q-19 3 -40 3q-22 0 -41 -3q-2 59 -26 86.5t-82 27.5q-71 0 -105.5 -37t-45.5 -131q-3 -23 -7 -61q-1 -14 -5 -46q-4 -20 -4 -24q0 -5 4 -5q1 0 8 11q20 33 24 38
q14 21 30 33q41 31 110 31q90 0 142 -62t52 -163zM414 213q0 163 -128 163q-46 0 -84 -24t-57 -64q-9 -19 -9 -31q0 -16 2 -37q16 -163 143 -163q133 0 133 156z" />
    <glyph glyph-name="seven" unicode="7" horiz-adv-x="500" 
d="M472 661q0 -16 -1 -34q-224 -286 -224 -627q-24 4 -40 4q-22 0 -42 -4q0 326 210 598q2 3 14 13q9 9 9 12q0 4 -9 4q-5 0 -17.5 -1.5t-17.5 -1.5h-90q-141 0 -226 -6q3 12 3 46q0 17 -1 30q176 -2 293 -2q100 0 138 2q1 -17 1 -33z" />
    <glyph glyph-name="eight" unicode="8" horiz-adv-x="537" 
d="M492 181q0 -92 -58 -142t-163 -50t-163.5 50t-58.5 142q0 112 100 162q5 2 30 8q19 4 19 10q0 5 -18 11q-25 9 -29 11q-79 47 -79 139q0 83 53.5 131.5t145.5 48.5q91 0 144.5 -48.5t53.5 -131.5q0 -92 -79 -139q-4 -2 -29 -11q-18 -6 -18 -11t19 -10q25 -6 30 -8
q100 -50 100 -162zM391 521q0 114 -120 114q-121 0 -121 -114q0 -65 28.5 -94.5t91.5 -29.5q121 0 121 124zM418 183q0 72 -39 109.5t-108 37.5t-108.5 -37.5t-39.5 -109.5q0 -126 147 -126q148 0 148 126z" />
    <glyph glyph-name="nine" unicode="9" horiz-adv-x="537" 
d="M482 373q0 -384 -234 -384q-90 0 -139.5 46.5t-50.5 134.5q21 -4 43 -4q21 0 39 4q2 -60 25 -85q24 -29 83 -29q71 0 105 37t45 131q3 23 8 61q1 14 5 46q4 20 4 24q0 5 -4 5q-1 0 -8 -11q-20 -33 -24 -38q-14 -21 -30 -33q-41 -31 -110 -31q-90 0 -142 62t-52 163
q0 108 56 169t155 61q226 0 226 -329zM400 434q0 16 -2 37q-16 163 -143 163q-132 0 -132 -156q0 -163 128 -163q46 0 84 24t57 64q8 17 8 31z" />
    <glyph glyph-name="colon" unicode=":" horiz-adv-x="241" 
d="M166 370q-21 5 -41 5q-18 0 -46 -5q2 20 2 49t-2 48q21 -2 40 -2t47 2q-2 -21 -2 -52q0 -29 2 -45zM166 0q-18 4 -41 4q-24 0 -46 -4q2 20 2 49t-2 48q21 -2 40 -2t47 2q-2 -21 -2 -52q0 -29 2 -45z" />
    <glyph glyph-name="semicolon" unicode=";" horiz-adv-x="241" 
d="M166 370q-21 5 -41 5q-18 0 -46 -5q2 20 2 49t-2 48q21 -2 40 -2t47 2q-2 -21 -2 -52q0 -29 2 -45zM169 92q-13 -125 -49 -248q-9 1 -19 1q-9 0 -37 -2q23 117 23 249q23 -2 43 -2q19 0 39 2z" />
    <glyph glyph-name="less" unicode="&#x3c;" horiz-adv-x="570" 
d="M509 3q-196 105 -448 222q3 23 3 31q0 6 -3 31q199 91 448 220q-4 -23 -4 -40q0 -16 4 -33q-117 -52 -311 -148q-1 0 -40 -13q-23 -8 -23 -18q0 -9 23 -17q39 -15 40 -15q180 -90 311 -147q-4 -14 -4 -32q0 -17 4 -41z" />
    <glyph glyph-name="equal" unicode="=" horiz-adv-x="570" 
d="M506 319q-131 3 -221 3q-130 0 -221 -3q3 14 3 32q0 20 -3 35q130 -3 221 -3q128 0 221 3q-2 -11 -2 -33q0 -21 2 -34zM506 129q-98 3 -221 3q-152 0 -221 -3q3 13 3 33q0 18 -3 34q94 -3 221 -3q92 0 221 3q-3 -19 -3 -37q0 -17 3 -30z" />
    <glyph glyph-name="greater" unicode="&#x3e;" horiz-adv-x="570" 
d="M509 223q-199 -91 -448 -220q4 23 4 40q0 16 -4 33q117 52 311 148q1 0 40 13q23 8 23 18q0 9 -23 17q-39 15 -40 15q-180 90 -311 147q4 14 4 32q0 17 -4 41q196 -105 448 -222q-3 -23 -3 -31q0 -6 3 -31z" />
    <glyph glyph-name="question" unicode="?" horiz-adv-x="493" 
d="M449 508q0 -69 -30.5 -112.5t-100.5 -82.5q-40 -23 -54 -44q-15 -25 -15 -72v-17q-18 4 -37 4q-15 0 -38 -4v16q0 93 50 137l94 58q50 36 50 111q0 68 -28.5 100.5t-95.5 32.5q-71 0 -97 -30.5t-26 -100.5q-14 3 -36 3q-17 0 -39 -4v13q0 91 53 138.5t147 47.5
q96 0 149.5 -50t53.5 -144zM256 0q-22 4 -43 4q-22 0 -44 -4q3 16 3 45t-3 47q19 -2 46 -2t41 2q-3 -23 -3 -47q0 -25 3 -45z" />
    <glyph glyph-name="at" unicode="@" horiz-adv-x="754" 
d="M696 377q0 -103 -44.5 -169t-114.5 -66q-53 0 -77 37q-2 3 -6 19q-3 13 -8 13q-4 0 -10 -11q-7 -15 -9 -17q-32 -39 -82 -39q-52 0 -82.5 41t-30.5 110q0 98 48.5 167t116.5 69q48 0 68 -38q5 -10 9 -10t4 32v12q13 -2 31 -2q17 0 28 2q-15 -110 -34 -260q0 -2 -1.5 -12
t-1.5 -11q0 -50 43 -50q45 0 72.5 50.5t27.5 131.5q0 124 -68.5 202.5t-176.5 78.5q-115 0 -191.5 -90.5t-76.5 -225.5q0 -134 79 -222.5t199 -88.5q53 0 92 12t92 44q4 -21 19 -41q-59 -39 -101.5 -52.5t-108.5 -13.5q-146 0 -240 100.5t-94 258.5q0 160 93.5 265
t237.5 105q133 0 215.5 -91.5t82.5 -239.5zM460 418q0 62 -57 62q-43 0 -72 -51.5t-29 -126.5q0 -43 16 -70.5t41 -27.5q48 0 74 70q8 20 20 96q7 42 7 48z" />
    <glyph glyph-name="A" unicode="A" horiz-adv-x="593" 
d="M577 0q-30 3 -47 3q-14 0 -43 -3q-15 45 -46 147q-4 14 -7.5 17t-19.5 3q-76 2 -142 2q-37 0 -88 -1q-23 0 -28 -3t-10 -19q-16 -51 -44 -146q-25 3 -41 3q-19 0 -45 -3q96 286 226 694q20 -3 51 -3q27 0 53 3q18 -65 105 -321q63 -186 126 -373zM416 241q0 2 -4.5 9
t-5.5 11q-34 106 -96 301l-13 52q-3 10 -5 10q-4 0 -6 -10q-5 -29 -12 -51q-30 -95 -93 -300q-1 -4 -5.5 -12.5t-4.5 -10.5q0 -5 9 -5q19 0 58 1t58 1q48 0 94 -1q2 0 8 -1h9q9 0 9 6z" />
    <glyph glyph-name="B" unicode="B" horiz-adv-x="587" 
d="M532 186q0 -102 -75 -152q-51 -34 -127 -34q-25 0 -79 1.5t-79 1.5q-46 0 -88 -3q3 195 3 358q0 202 -3 336q41 -3 80 -3q26 0 74.5 1.5t74.5 1.5q76 0 123 -29q70 -43 70 -144q0 -74 -41 -113q-24 -22 -61 -35q-1 0 -24 -4q-15 -2 -15 -7t16 -6l25 -3q51 -12 80 -42
q46 -47 46 -125zM422 512q0 113 -131 113q-11 0 -106 -3q-16 0 -19 -4t-3 -23q-2 -92 -2 -155v-25q0 -17 3 -20.5t18 -3.5q14 0 98 2q73 2 107.5 29.5t34.5 89.5zM446 190q0 77 -49 109q-38 25 -114 27t-104 2q-13 0 -15.5 -3.5t-2.5 -20.5v-22q0 -152 1 -174q1 -28 7 -33.5
t37 -6.5q42 -1 95 -1q145 0 145 123z" />
    <glyph glyph-name="C" unicode="C" horiz-adv-x="586" 
d="M540 224q0 -105 -59 -168q-61 -66 -167 -66q-255 0 -255 339q0 370 259 370q220 0 221 -233q-17 2 -35 2q-24 0 -44 -3q-3 163 -144 163q-91 0 -133 -64q-45 -70 -45 -228q0 -278 174 -278q145 0 148 181q28 -4 48 -4q12 0 31 2q0 -2 1 -7v-6z" />
    <glyph glyph-name="D" unicode="D" horiz-adv-x="628" 
d="M570 341q0 -164 -69.5 -252.5t-203.5 -88.5h-17q-21 0 -56.5 1.5t-54.5 1.5q-61 0 -85 -3q3 155 3 334q0 164 -3 360q46 -3 83 -3q22 0 56.5 1.5t47.5 1.5h13q286 0 286 -353zM489 342q0 128 -42 196q-55 88 -187 88q-7 0 -72 -1q-17 0 -21 -4t-4 -24q-3 -132 -3 -257
q0 -109 2 -211q1 -42 8 -50t45 -10q19 -1 40 -1q132 0 186 69q48 62 48 205z" />
    <glyph glyph-name="E" unicode="E" horiz-adv-x="539" 
d="M466 0q-71 4 -181 4q-113 0 -201 -4q3 152 3 346q0 149 -3 348q85 -4 195 -4q109 0 178 4q-2 -24 -2 -38q0 -19 2 -40q-104 3 -258 3q-25 0 -30 -3.5t-5 -21.5q-1 -59 -1 -164v-22q0 -15 4.5 -18.5t22.5 -3.5h21q58 0 234 4q-3 -21 -3 -41t3 -37q-102 3 -234 3h-21
q-17 0 -22 -4t-5 -19v-20q0 -106 1 -173q0 -17 4.5 -20.5t24.5 -3.5q187 0 273 4q-3 -22 -3 -44q0 -18 3 -35z" />
    <glyph glyph-name="F" unicode="F" horiz-adv-x="491" 
d="M457 616q-121 3 -240 3h-27q-18 0 -22 -4t-4 -21q-1 -59 -1 -154v-32q0 -16 4 -19t23 -3q79 0 255 4q-3 -21 -3 -41t3 -37q-102 3 -255 3q-18 0 -22.5 -3.5t-4.5 -19.5q0 -159 2 -292q-20 3 -39 3q-21 0 -42 -3q3 152 3 326q0 169 -3 368q85 -4 193 -4q111 0 180 4
q-2 -24 -2 -38q0 -19 2 -40z" />
    <glyph glyph-name="G" unicode="G" horiz-adv-x="607" 
d="M554 109q-50 -68 -108 -96q-54 -26 -139 -26q-119 0 -183 86q-67 89 -67 260q0 164 58 258q68 110 211 110q77 0 132.5 -37t77.5 -104q14 -41 14 -88q-14 2 -39 2q-26 0 -42 -2q-11 159 -148 159q-185 0 -185 -299q0 -278 178 -278q96 0 141 52q18 21 22 34t4 58v50
q-4 26 -29 26q-68 0 -130 -4q3 24 3 38q0 4 -3 36q55 -3 121 -3q67 0 111 3q-2 -44 -2 -95q0 4 2 -140z" />
    <glyph glyph-name="H" unicode="H" horiz-adv-x="645" 
d="M559 0q-15 3 -40 3q-18 0 -41 -3q2 234 2 286v13q0 15 -3.5 19t-21.5 4q-39 1 -133 1q-90 0 -133 -1q-17 0 -20.5 -3t-3.5 -18v-15q0 -194 2 -286q-14 3 -40 3q-20 0 -41 -3q3 165 3 348q0 151 -3 346q18 -3 40 -3q14 0 41 3q-2 -75 -2 -261v-16q0 -16 3.5 -20.5
t18.5 -4.5q82 -2 135 -2q69 0 136 2q16 0 19 4.5t3 21.5v16q0 166 -2 260q16 -3 39 -3q21 0 42 3q-3 -301 -3 -346q0 -116 3 -348z" />
    <glyph glyph-name="I" unicode="I" 
d="M164 0q-16 3 -40 3t-41 -3q3 139 3 332q0 160 -3 362q22 -3 41 -3q14 0 40 3q-3 -262 -3 -362q0 -135 3 -332z" />
    <glyph glyph-name="J" unicode="J" horiz-adv-x="515" 
d="M433 213q0 -107 -43.5 -165.5t-157.5 -58.5q-98 0 -147 67q-41 57 -41 154q0 18 1 32q24 -4 40 -4q18 0 40 4q-1 -17 -1 -33q0 -153 108 -153q77 0 102 50q17 31 19 118q1 36 1 192q0 -3 -3 278q21 -4 43 -4q18 0 38 4q-2 -105 -2 -251q0 -38 1.5 -115t1.5 -115z" />
    <glyph glyph-name="K" unicode="K" horiz-adv-x="565" 
d="M540 0q-20 3 -56 3q-31 0 -44 -3q-62 77 -202 246q-15 17 -58 75q-13 17 -12 17q-5 0 -5 -12q0 -17 1.5 -53.5t1.5 -46.5v-226q-15 3 -37 3t-43 -3q3 154 3 334q0 158 -3 360q16 -3 40 -3q19 0 40 3l-1 -245q0 -6 -1 -30.5t-1 -34.5q0 -14 4 -14l12 15q21 27 68 83
q72 86 188 226q23 -3 46 -3q22 0 42 3q-79 -91 -232 -271q-22 -26 -35 -39q-24 -23 -24 -22q0 -4 8 -10q12 -9 13 -10q28 -29 48 -54q36 -45 239 -288z" />
    <glyph glyph-name="L" unicode="L" horiz-adv-x="452" 
d="M422 0q-53 3 -168 3q-105 0 -170 -3q3 287 3 357q0 149 -3 337q17 -3 38 -3t43 3q-3 -159 -3 -339q0 -56 1 -136q2 -111 2 -119q0 -18 3 -21.5t17 -3.5h17q139 0 220 4q-2 -16 -2 -39t2 -40z" />
    <glyph glyph-name="M" unicode="M" horiz-adv-x="805" 
d="M718 0q-19 3 -39 3q-21 0 -41 -3l1 381q0 36 5 115q4 75 4 114q0 11 -4 11q-7 0 -19 -46.5t-34 -125.5q-43 -124 -132 -379q-5 -14 -21 -70q-20 3 -42 3t-39 -3q-11 41 -21 70q-53 149 -133 377q-19 56 -32 127q-9 47 -17 47q-5 0 -5 -12q0 -38 4.5 -115t4.5 -113l1 -381
q-20 3 -38 3t-39 -3q2 128 2 311q0 202 -2 383q22 -3 63 -3q40 0 56 3q28 -91 180 -528q9 -25 13 -50q4 -21 7 -21t6.5 20t15.5 53q122 343 175 526q28 -4 63 -4t56 4l-1 -304q0 -227 2 -390z" />
    <glyph glyph-name="N" unicode="N" horiz-adv-x="663" 
d="M579 694q-2 -114 -2 -325v-369q-23 3 -57 3t-56 -3q-83 176 -260 532q-9 18 -21 43q-15 40 -21 40t-6 -17q0 -14 2.5 -43t2.5 -43v-185q0 -207 2 -327q-13 3 -35 3q-23 0 -45 -3q3 153 3 327q0 186 -3 367q30 -4 62 -4t66 4q42 -88 243 -496q18 -36 29 -68q14 -39 19 -39
q4 0 4 14q0 16 -2.5 49t-2.5 49v166q0 180 -2 325q19 -3 37 -3t43 3z" />
    <glyph glyph-name="O" unicode="O" horiz-adv-x="645" 
d="M586 337q0 -350 -261 -350q-127 0 -195 88q-72 93 -72 271q0 171 68 263t199 92q261 0 261 -364zM508 340q0 149 -55 226q-49 68 -130 68q-186 0 -186 -291q0 -144 50 -219q48 -71 135 -71q186 0 186 287z" />
    <glyph glyph-name="P" unicode="P" horiz-adv-x="544" 
d="M499 486q0 -107 -65.5 -166.5t-173.5 -59.5q-15 0 -41 1h-41q-11 0 -13.5 -2.5t-2.5 -13.5v-22q0 -80 3 -223q-19 3 -38 3q-18 0 -43 -3q3 153 3 316q0 181 -3 378q28 -2 63 -2q22 0 62 1t62 1q228 0 228 -208zM417 485q0 58 -32 95q-38 44 -112 44q-18 0 -87 -3
q-16 -1 -19.5 -3.5t-3.5 -14.5v-17q-1 -11 -1 -27v-202q0 -16 3 -20t15 -5q24 -1 54 -1q183 0 183 154z" />
    <glyph glyph-name="Q" unicode="Q" horiz-adv-x="645" 
d="M586 337q0 -304 -206 -345q-10 -2 -10 -22q0 -38 27 -51q19 -9 64 -9q21 0 53 6q-4 -24 -4 -43q0 -20 4 -39q-33 -8 -68 -8q-138 0 -150 122q-1 7 -1 22q-1 12 -2.5 15.5t-10.5 4.5q-121 18 -178 131q-46 89 -46 225q0 157 62 250q69 105 205 105q261 0 261 -364z
M508 340q0 124 -41 202q-48 92 -144 92q-186 0 -186 -291q0 -124 40 -200q48 -90 145 -90t145 87q41 75 41 200z" />
    <glyph glyph-name="R" unicode="R" horiz-adv-x="566" 
d="M522 0q-16 3 -40 3q-25 0 -45 -3q-19 96 -27 129q-17 72 -34 105t-39 46q-30 17 -93 17h-54q-21 0 -24.5 -3.5t-3.5 -23.5v-6q0 -121 3 -264q-14 3 -38 3t-43 -3q3 323 3 326q0 76 -1 190q-2 156 -2 178q25 -2 97 -2q21 0 59.5 1t59.5 1q107 0 161 -61q46 -51 46 -129
q0 -61 -31 -108t-84 -57l-20 -2q-16 -2 -16 -7q0 -2 22 -10q26 -10 36 -19q29 -27 45 -68q13 -33 63 -233zM425 504q0 121 -151 121q-34 0 -83 -3q-16 -1 -22 -5.5t-6 -19.5q-1 -63 -1 -187v-21q0 -17 6 -20.5t25 -3.5h45q36 0 56 2q66 6 96 35q35 32 35 102z" />
    <glyph glyph-name="S" unicode="S" horiz-adv-x="557" 
d="M506 185q0 -91 -61.5 -145t-165.5 -54q-101 0 -162 51q-66 56 -66 159q0 18 2 35q14 -3 38 -3q25 0 44 3q-3 -20 -2 -32q7 -142 154 -142q137 0 137 121q0 71 -80 107q-22 10 -90 33q-60 20 -93 39q-93 52 -93 161q0 80 59.5 134.5t153.5 54.5q88 0 149 -46
q67 -50 67 -137q0 -29 -2 -46q-16 3 -39 3t-42 -3q0 12 1 32q0 60 -39 92t-100 32q-67 0 -101 -35q-28 -30 -28 -77q0 -63 66 -98q27 -14 83 -33q64 -21 90 -33q120 -53 120 -173z" />
    <glyph glyph-name="T" unicode="T" horiz-adv-x="468" 
d="M453 616q-100 2 -150 2h-16q-11 0 -13 -2t-2 -13v-41q0 -268 3 -562q-15 3 -39 3t-42 -3l3 603q0 15 -20 15h-18q-29 0 -144 -2q2 20 2 39q0 20 -2 39q169 -3 219 -3q91 0 219 3q-2 -19 -2 -41q0 -21 2 -37z" />
    <glyph glyph-name="U" unicode="U" horiz-adv-x="614" 
d="M531 230q0 -124 -53.5 -183.5t-170.5 -59.5q-224 0 -224 243v8q0 41 1 121t1 123q0 115 -2 212q21 -3 41 -3q19 0 40 3v-95q-1 -73 -1 -117q0 -157 1 -244q2 -180 143 -180q77 0 109.5 42.5t33.5 137.5l2 244q0 39 -1 114t-1 98q19 -4 39 -4q19 0 42 4q-1 -68 -1 -212
q0 -37 1 -118v-126v-8z" />
    <glyph glyph-name="V" unicode="V" horiz-adv-x="590" 
d="M575 694q-93 -284 -225 -694q-17 3 -49 3q-33 0 -56 -3q-11 34 -230 694q20 -3 52 -3q29 0 39 3q83 -281 175 -561q4 -20 12 -52q3 -10 6 -10q6 0 8 10q2 19 9 51q107 331 172 562q15 -3 40 -3t47 3z" />
    <glyph glyph-name="W" unicode="W" horiz-adv-x="885" 
d="M870 694q-63 -260 -162 -694q-18 3 -55 3q-32 0 -58 -3q-8 38 -116 435q-18 66 -26 132q-6 45 -10 45q-5 0 -10 -45q-7 -55 -27 -131q-46 -162 -119 -436q-19 3 -51 3q-34 0 -57 -3q-55 243 -164 694q20 -3 40 -3q18 0 47 3q38 -184 114 -525q4 -29 16 -87q3 -11 6 -11
q4 0 6 11q6 31 18 87q55 199 137 525q16 -3 45 -3q30 0 49 3q13 -60 136 -524q6 -29 20 -88q3 -11 5 -11t4 11q4 30 14 88q47 201 116 524q22 -3 39 -3q16 0 43 3z" />
    <glyph glyph-name="X" unicode="X" horiz-adv-x="543" 
d="M523 0q-24 3 -53 3q-28 0 -47 -3q-48 88 -127 233q-6 10 -18 36q-8 20 -10 20t-5 -6q-3 -10 -5 -14q-5 -10 -18 -33q-39 -74 -132 -236q-12 3 -37 3q-26 0 -52 -3q70 117 192 328q8 14 8 22q0 9 -4 16q-61 105 -187 328q28 -3 52 -3t41 3q61 -103 124 -224q6 -10 17 -34
l11 -28q-1 0 11 28q7 16 20 39q34 65 120 219q18 -3 41 -3t49 3q-67 -113 -184 -314q-10 -17 -10 -24t8 -21q66 -110 195 -335z" />
    <glyph glyph-name="Y" unicode="Y" horiz-adv-x="556" 
d="M541 694q-79 -140 -202 -364q-15 -29 -19 -48q-3 -15 -3 -55q0 -99 1 -227q-21 3 -41 3t-40 -3l2 224q0 42 -3.5 60t-18.5 46q-76 135 -202 364q20 -3 47 -3q25 0 43 3q56 -103 149 -275q9 -17 17 -49q4 -17 9 -17q4 0 9 18.5t21 47.5q56 102 146 275q16 -3 40 -3
q27 0 45 3z" />
    <glyph glyph-name="Z" unicode="Z" horiz-adv-x="458" 
d="M438 0q-160 3 -265 3q-54 0 -153 -3q2 17 2 36q0 18 -2 31l278 477q9 16 34 51q14 16 14 24q0 7 -19 7h-50q-44 0 -132 -3q-97 -4 -117 -4q2 13 2 35t-2 40q168 -3 248 -3q92 0 157 3q1 -15 1 -30q0 -14 -1 -30l-315 -543q-3 -6 -9.5 -13t-6.5 -10q0 -2 6 -2q4 0 17.5 2
t18.5 2l294 7l-3 -39q0 -17 3 -38z" />
    <glyph glyph-name="bracketleft" unicode="[" horiz-adv-x="354" 
d="M279 -152q-48 2 -84 2t-85 -2l2 431q0 260 -2 438q25 -1 86 -1q59 0 81 1q-1 -18 -1 -27q0 -10 1 -23l-82 2q-13 0 -13 -15q-1 -126 -1 -378l1 -362q0 -18 15 -18q23 0 82 1q-2 -13 -2 -23q0 -8 2 -26z" />
    <glyph glyph-name="backslash" unicode="\" horiz-adv-x="429" 
d="M379 -121q-16 4 -33 4t-36 -4q-161 446 -307 831q17 -4 38 -4q18 0 32 3q157 -449 306 -830z" />
    <glyph glyph-name="bracketright" unicode="]" horiz-adv-x="354" 
d="M235 -152q-25 1 -86 1q-59 0 -81 -1q1 18 1 27q0 10 -1 23l82 -2q13 0 13 15q1 126 1 382l-1 358q0 18 -15 18q-23 0 -82 -1q2 13 2 23q0 8 -2 26q48 -2 84 -2t85 2l-2 -427q0 -264 2 -442z" />
    <glyph glyph-name="asciicircum" unicode="^" horiz-adv-x="555" 
d="M525 325q-12 2 -32 2q-22 0 -35 -2q-85 154 -164 276l-7 17q-5 9 -10 9t-9 -10l-8 -17q-81 -132 -162 -275q-14 2 -35 2q-20 0 -30 -2q120 191 210 357q14 -2 36 -2q21 0 33 2q83 -148 213 -357z" />
    <glyph glyph-name="underscore" unicode="_" horiz-adv-x="580" 
d="M565 -130h-550v58h550v-58z" />
    <glyph glyph-name="grave" unicode="`" 
d="M212 578q-8 1 -28 1q-21 0 -30 -1q-42 51 -118 143q25 2 51 2q27 0 47 -2q28 -51 78 -143z" />
    <glyph glyph-name="a" unicode="a" horiz-adv-x="503" 
d="M437 0h-13q-43 0 -64 -4q-3 35 -3 67q0 14 -4 14q-3 0 -10 -16q-33 -74 -131 -74q-76 0 -116.5 38t-40.5 106q0 106 90 143q39 16 169 28q37 3 37 33v11q0 56 -23.5 78.5t-77.5 22.5q-57 0 -80 -17t-23 -55q0 -5 1 -12.5t1 -8.5q-17 3 -38 3q-17 0 -36 -3q0 2 -1 10
t-1 10q0 71 53 108q48 33 126 33q122 0 158 -80q15 -34 15 -96v-100q-1 -67 -1 -88q0 -66 13 -151zM353 248v2q0 4 -3 4q1 0 -11 -3q-23 -5 -63 -9q-23 -2 -65 -8q-84 -19 -84 -104q0 -36 25.5 -56.5t62.5 -20.5q105 0 129 90q7 27 7 55q0 9 1 25t1 25z" />
    <glyph glyph-name="b" unicode="b" horiz-adv-x="535" 
d="M478 248q0 -258 -190 -258q-61 0 -96 22q-12 7 -25 23q-3 3 -11 22q-7 16 -12 16q-6 0 -6 -25q0 -5 1 -20v-24v-4q-12 2 -38 2q-15 0 -32 -2q8 63 9 128q2 146 2 309q0 160 -2 272q21 -3 39 -3q15 0 36 3l-2 -250q-3 -14 -3 -23t3 -9q2 0 18 28q20 36 62 50q26 9 58 9
q189 0 189 -266zM400 247q0 102 -30 151t-98 49q-41 0 -72 -28.5t-43 -72.5q-5 -19 -5 -89q0 -90 19 -134q29 -67 109 -67q65 0 93 48q27 45 27 143z" />
    <glyph glyph-name="c" unicode="c" horiz-adv-x="465" 
d="M426 334q-19 3 -34 3q-17 0 -45 -4l-2 16q-12 99 -95 99q-115 0 -115 -208q0 -189 112 -189q47 0 73.5 34.5t27.5 93.5q21 -7 51 -7q15 0 26 2q-19 -188 -176 -188q-194 0 -194 255q0 132 52.5 203t151.5 71q148 0 165 -162z" />
    <glyph glyph-name="d" unicode="d" horiz-adv-x="533" 
d="M470 0h-12q-43 0 -64 -4q-1 22 -1 75q0 11 -5 11q-4 0 -10 -11.5t-12.5 -23t-18.5 -21.5q-44 -36 -111 -36q-182 0 -182 254q0 117 42 187q49 83 149 83q43 0 76.5 -17t47.5 -50q9 -20 14 -20q3 0 3 6q0 -3 -4 35q-2 18 -2 37l-1 204q16 -3 37 -3q20 0 41 3
q-2 -118 -2 -276q0 -103 2 -298q1 -54 13 -135zM380 255v45q0 45 -13 72q-36 75 -107 75q-70 0 -100 -52q-28 -47 -28 -149q0 -97 29 -143.5t94 -46.5q49 0 84 35q31 31 38 77q3 17 3 87z" />
    <glyph glyph-name="e" unicode="e" horiz-adv-x="493" 
d="M446 143q-25 -157 -188 -157q-204 0 -204 250q0 130 55.5 205t151.5 75q86 0 134 -63t48 -187q0 -6 -1 -29q-59 4 -161 4h-132q-12 0 -15 -3.5t-3 -13.5v-7q0 -78 34.5 -121.5t96.5 -43.5q95 0 113 93q30 -4 49 -4q11 0 22 2zM362 327q0 8 -1 15q-15 108 -107 108
q-47 0 -79.5 -36t-42.5 -95q-1 -6 -1 -11q0 -13 22 -13q49 -1 65 -1q60 0 120 4q17 1 20.5 5.5t3.5 23.5z" />
    <glyph glyph-name="f" unicode="f" horiz-adv-x="298" 
d="M283 663q0 -20 -3 -34q-25 10 -47 10q-33 0 -46 -28q-8 -18 -9 -61q0 -5 -1 -17t-1 -18q0 -11 2.5 -14t13.5 -3q63 0 89 2q-1 -9 -1 -33q0 -25 1 -34q-52 2 -93 2q-12 0 -12 -12q0 -190 2 -423q-23 4 -38 4q-14 0 -38 -4q2 176 2 424q0 11 -13 11q-19 0 -73 -2q2 13 2 34
q0 22 -2 33q36 -2 71 -2q14 0 14 17q0 9 -1 22.5t-1 16.5q0 80 33.5 118.5t91.5 38.5q27 0 54 -9q3 -21 3 -39z" />
    <glyph glyph-name="g" unicode="g" horiz-adv-x="534" 
d="M465 504q-14 -148 -14 -261q0 -43 1 -130.5t1 -129.5q0 -181 -200 -181q-171 0 -171 128q17 -2 43 -2q24 0 37 2q0 -67 96 -67q54 0 87.5 31.5t33.5 86.5v33q0 23 3 40t3 19q0 9 -5 9q-1 0 -30 -41q-33 -46 -101 -46q-93 0 -144 65t-51 191q0 125 49.5 192.5t141.5 67.5
q84 0 122 -64q4 -8 7 -15q5 -10 12 -10q8 0 8 82q12 -4 34 -4t37 4zM377 254q0 68 -8 95q-29 97 -114 97q-124 0 -124 -189q0 -109 32 -155q30 -42 96 -42q84 0 112 94q6 20 6 100z" />
    <glyph glyph-name="h" unicode="h" horiz-adv-x="523" 
d="M445 0q-16 4 -40 4q-23 0 -40 -4q1 63 4 197l1 76q0 26 -1 48q-3 62 -16 88q-19 39 -70 39q-58 0 -93 -49t-35 -130q0 -49 2 -269q-14 4 -39 4q-18 0 -38 -4q3 135 3 326q0 189 -3 383q19 -4 37 -4q17 0 40 4l-1 -209q0 -26 -3 -45q-4 -27 -4 -39q0 -14 4 -14q2 0 12 23
q15 35 48 60q40 30 92 30q100 0 129 -86q11 -33 11 -77v-77q-1 -52 -1 -78q0 -116 1 -197z" />
    <glyph glyph-name="i" unicode="i" 
d="M163 612q-15 3 -37 3q-24 0 -42 -3q3 27 3 52t-3 45q17 -2 43 -2q24 0 36 2q-2 -16 -2 -49q0 -31 2 -48zM163 0q-20 4 -40 4q-25 0 -39 -4q3 105 3 239q0 131 -3 261q14 -4 40 -4q20 0 39 4q-2 -85 -2 -257q0 -170 2 -243z" />
    <glyph glyph-name="j" unicode="j" 
d="M163 612q-15 3 -37 3q-24 0 -42 -3q2 18 2 52q0 31 -2 45q17 -2 43 -2q24 0 36 2q-2 -16 -2 -48t2 -49zM163 -16q0 -84 -31 -126q-37 -50 -123 -50q-26 0 -57 8q2 15 2 36t-2 35q29 -7 53 -7q55 0 71 32q9 18 10 80q1 43 1 135q0 91 -3 373q19 -4 40 -4q18 0 39 4
q-1 -35 -1 -110v-98q0 -51 1 -153v-147v-8z" />
    <glyph glyph-name="k" unicode="k" horiz-adv-x="491" 
d="M478 0q-36 4 -55 4q-30 0 -42 -4q-60 84 -151 213q-11 16 -18 16q-5 0 -13 -6q-37 -26 -37 -57v-49l1 -117q-15 4 -34 4q-25 0 -45 -4q2 132 2 373q0 242 -2 336q19 -4 43 -4q17 0 36 4q-1 -152 -2 -381q0 -12 -1 -37q-3 -40 -3 -31q0 -9 3 -9q1 0 18 22q11 15 28 33
q75 83 164 194q12 -5 39 -5q17 0 52 5l-8 -9q-52 -58 -146 -163q-4 -4 -36 -34q-6 -6 -6 -11q0 -7 6 -13q10 -10 34 -39q77 -105 173 -231z" />
    <glyph glyph-name="l" unicode="l" 
d="M164 0q-18 4 -37 4q-23 0 -43 -4q2 127 2 352q0 189 -2 357q19 -4 43 -4q18 0 37 4q-2 -172 -2 -357q0 -232 2 -352z" />
    <glyph glyph-name="m" unicode="m" horiz-adv-x="800" 
d="M723 311v-52q-1 -31 -1 -37v-222q-24 4 -38 4q-9 0 -41 -4q5 119 5 222v103q0 124 -84 124q-64 0 -97 -50q-28 -43 -28 -110v-67l2 -222q-21 4 -37 4q-21 0 -41 -4q2 98 2 216q0 74 -1 127q-2 106 -83 106q-62 0 -96 -54q-28 -46 -28 -112v-71q0 -144 1 -212q-20 4 -37 4
q-13 0 -41 -4q1 45 1 119v112q0 89 -1 142q-1 70 -9 127q30 -4 43 -4q16 0 36 4q2 -14 2 -39q0 -8 -1 -23.5t-1 -23.5q0 -9 2 -9q4 0 9 15q18 52 56 75q33 20 81 20q56 0 89 -27q28 -23 36 -68q2 -14 5 -14q2 0 8 18q12 38 44 63q37 28 95 28q138 0 147 -155q1 -17 1 -49z
" />
    <glyph glyph-name="n" unicode="n" horiz-adv-x="531" 
d="M453 0q-16 4 -37 4t-41 -4q2 69 2 172q0 67 -1 155q-1 57 -15 84q-20 39 -73 39q-48 0 -81 -32q-51 -49 -51 -144v-37q1 -30 1 -45l1 -192q-27 4 -42 4q-16 0 -36 -4q1 63 1 161v104q0 97 -3 153t-7 82q19 -4 38 -4t40 4q2 -12 2 -28q0 -11 -1.5 -32.5t-1.5 -33.5
q0 -8 2 -8q3 0 8 12q4 9 7.5 17t12.5 22q46 63 127 63q73 0 110 -44.5t37 -121.5v-123q0 -162 1 -223z" />
    <glyph glyph-name="o" unicode="o" horiz-adv-x="512" 
d="M462 250q0 -129 -53.5 -197t-150.5 -68t-150.5 68t-53.5 197t53.5 197t150.5 68t150.5 -68t53.5 -197zM384 250q0 198 -126 198t-126 -198t126 -198t126 198z" />
    <glyph glyph-name="p" unicode="p" horiz-adv-x="537" 
d="M483 258q0 -117 -42 -188q-50 -85 -150 -85q-93 0 -123 71q-9 21 -14 21q-3 0 -3 -6q0 -12 2.5 -36t2.5 -36l1 -188q-15 4 -36 4q-25 0 -44 -4q2 118 2 255q0 103 -2 298q-1 54 -13 135q13 -1 24 -1q29 0 55 5q1 -22 1 -75q0 -11 5 -11t10 11q43 87 141 87
q183 0 183 -257zM405 256q0 193 -124 193q-42 0 -83 -41q-35 -36 -40 -100q-2 -28 -2 -83q0 -47 2 -65q5 -45 39.5 -76.5t79.5 -31.5q70 0 100 53q28 49 28 151z" />
    <glyph glyph-name="q" unicode="q" horiz-adv-x="537" 
d="M463 500q-1 -11 -3 -123q-2 -146 -2 -309q0 -145 2 -257q-23 5 -44 5q-17 0 -36 -5l3 235q2 16 2 23q0 9 -3 9q-2 0 -18 -28q-33 -59 -120 -59q-189 0 -189 266q0 258 190 258q61 0 96 -22q12 -7 25 -23q3 -3 13 -27q8 -20 13 -20q4 0 7 18q1 14 2.5 27t1.5 21v11
q12 -2 32 -2q11 0 28 2zM381 245q0 74 -7 103q-24 101 -121 101q-65 0 -92.5 -46.5t-27.5 -144.5q0 -102 30 -151t98 -49q43 0 73.5 26.5t41.5 68.5q5 19 5 92z" />
    <glyph glyph-name="r" unicode="r" horiz-adv-x="328" 
d="M307 472q0 -30 -2 -44q-11 3 -22 3q-68 0 -100 -67q-25 -50 -25 -126q0 -141 1 -238q-16 4 -41 4q-21 0 -37 -4q2 68 2 243q0 10 1 43v44q0 34 -2 76q-3 62 -9 94q18 -4 38 -4q23 0 36 4q5 -20 5 -53v-19q-1 -13 -1 -19q0 -10 3 -10q2 0 9 14q12 25 18 36q12 19 27 32
q38 33 86 33l11 -1q2 -11 2 -41z" />
    <glyph glyph-name="s" unicode="s" horiz-adv-x="454" 
d="M406 145q0 -70 -50.5 -114.5t-134.5 -44.5q-178 0 -178 161v9q17 -3 36 -3q18 0 35 3v-7q0 -56 31 -79q27 -19 82 -19q48 0 77.5 22t29.5 61q0 53 -73 76q-67 20 -134 41q-71 35 -71 119q0 62 48 103.5t122 41.5q87 0 131 -53q21 -26 28 -69q2 -13 2 -34q-15 2 -29 2
q-20 0 -40 -3q0 13 -2 23q-13 67 -94 67q-93 0 -93 -71q0 -54 72 -77q66 -20 133 -39q72 -35 72 -116z" />
    <glyph glyph-name="t" unicode="t" horiz-adv-x="307" 
d="M289 31q0 -15 -2 -31q-45 -13 -79 -13q-66 0 -95 29q-32 31 -32 103v9q0 20 1 79v93v39q0 29 1 54q0 7 1 17.5t1 13.5q0 11 -12 11q-2 0 -12 -1t-34 -1q1 10 1 18q0 7 -1 19q49 28 77 142q9 2 23 2q16 0 32 -2q-2 -101 -2 -107q0 -7 7 -7h8q6 0 108 2q-1 -11 -1 -33
q0 -23 1 -34q-119 2 -103 2q-20 0 -20 -23q-1 -71 -1 -132q0 -96 1 -140q1 -51 12 -66q14 -20 61 -20q22 0 57 11q2 -18 2 -34z" />
    <glyph glyph-name="u" unicode="u" horiz-adv-x="533" 
d="M461 2q-19 4 -38 4t-40 -4q-3 18 -3 42q0 9 2 26t2 26q0 8 -3 8q-5 -12 -14 -28.5t-31 -45.5q-42 -40 -109 -40q-73 0 -111 47q-37 44 -37 123v119q0 161 -1 223q19 -4 40 -4t39 4q-2 -69 -2 -223v-104q0 -68 22 -95.5t67 -27.5q66 0 102 58q30 48 30 118q0 35 -1 135
q-1 115 -1 139q22 -4 40 -4t38 4q-1 -63 -1 -165q0 -103 1 -170q2 -120 9 -165z" />
    <glyph glyph-name="v" unicode="v" horiz-adv-x="461" 
d="M446 500q-70 -206 -168 -500q-18 3 -47 3q-30 0 -45 -3q-56 161 -171 500q31 -3 53 -3t33 3q35 -114 114 -365q5 -23 13 -57q2 -9 6 -9t6 9q6 35 13 56q19 60 110 366q12 -4 32 -4q21 0 51 4z" />
    <glyph glyph-name="w" unicode="w" horiz-adv-x="694" 
d="M679 500q-50 -190 -126 -500q-16 5 -54 5q-24 0 -48 -5q-3 11 -72 268q-17 64 -24 119q-1 14 -2 27.5t-6 13.5t-10 -41q-6 -52 -24 -118q-24 -84 -73 -269q-17 5 -44 5q-33 0 -56 -5q-42 164 -125 500q30 -3 47 -3q18 0 34 3q42 -196 75 -333q4 -30 16 -88q2 -10 8 -10
q5 0 7 10q6 32 18 88q27 97 73 280l12 53q15 -4 45 -4q34 0 45 4l12 -53q22 -98 70 -279q6 -30 19 -89q3 -10 8 -10q4 0 6 10q4 30 14 89q26 111 77 332q9 -3 31 -3q23 0 47 3z" />
    <glyph glyph-name="x" unicode="x" horiz-adv-x="429" 
d="M414 0q-24 4 -47 4q-22 0 -48 -4q-30 58 -81 155q-7 13 -19 41q-8 18 -9 18q1 0 -9 -18q-5 -13 -17 -38q-26 -50 -84 -158q-12 4 -37 4q-14 0 -48 -4l140 241q8 14 8 20q0 13 -4 20q-41 68 -130 219q25 -4 45 -4t45 4q0 -1 69 -132q11 -21 19 -42q6 -15 10 -15q3 0 9 15
q14 32 22 47q20 41 65 127q16 -4 33 -4t51 4q-45 -76 -126 -213q-9 -16 -9 -21q0 -9 8 -23q47 -79 144 -243z" />
    <glyph glyph-name="y" unicode="y" horiz-adv-x="452" 
d="M437 500l-162 -500q-32 -100 -53 -133q-41 -65 -111 -65q-34 0 -65 7q3 14 3 29q0 4 -3 43q33 -10 58 -10q37 0 62 28t25 69q0 30 -13 70l-24 66q-48 132 -139 396q31 -3 49 -3q26 0 37 3q34 -113 113 -363q5 -23 13 -57q2 -9 6 -9t6 9q8 42 12 56q24 73 53 183
q36 133 50 181q12 -4 37 -4q16 0 46 4z" />
    <glyph glyph-name="z" unicode="z" horiz-adv-x="410" 
d="M375 0q-135 3 -228 3q-87 0 -112 -3q2 13 2 31t-2 32q79 120 210 328q4 7 19 23q12 13 12 16q0 4 -10 4q-4 0 -12.5 -1t-11.5 -1h-48q-19 0 -140 -4q3 16 3 39q0 17 -3 33q107 -4 198 -4q82 0 114 4q1 -10 1 -28q0 -19 -1 -30q-87 -133 -213 -331q-9 -14 -21 -27
q-8 -9 -8 -13q0 -3 6 -3h19q20 1 29 1q119 1 197 3q-2 -24 -2 -40q0 -13 2 -32z" />
    <glyph glyph-name="braceleft" unicode="{" horiz-adv-x="327" 
d="M271 -151h-18q-64 0 -92 27q-33 31 -33 105q0 13 4 82.5t4 82.5q0 54 -12 80q-17 39 -62 45q2 9 2 20q0 12 -2 21q74 9 74 122q0 12 -4.5 76t-4.5 75q0 75 30.5 104.5t113.5 29.5q-2 -8 -2 -18q0 -11 2 -18q-46 -1 -61 -26q-12 -19 -12 -68q0 -12 4 -76t4 -76
q0 -90 -48 -126q-4 -3 -26 -8q-17 -4 -17 -12q0 -9 17 -13q23 -6 26 -8q48 -32 48 -131q0 -12 -4 -80.5t-4 -80.5q0 -47 12 -66q15 -25 61 -26q-3 -10 -3 -20t3 -17z" />
    <glyph glyph-name="bar" unicode="|" horiz-adv-x="235" 
d="M148 -129q-10 2 -29 2t-32 -2q3 187 3 414q0 223 -3 439q20 -2 32 -2q15 0 29 2l-2 -439q0 -248 2 -414z" />
    <glyph glyph-name="braceright" unicode="}" horiz-adv-x="327" 
d="M265 256q-74 -9 -74 -122q0 -12 4.5 -76t4.5 -75q0 -75 -31 -104.5t-114 -29.5q3 12 3 18q0 7 -3 18q47 1 63 27q11 19 11 67q0 12 -4 76t-4 76q0 90 48 126q4 3 26 8q17 4 17 12q0 9 -17 13q-23 6 -26 8q-48 32 -48 131q0 12 4 80.5t4 80.5q0 47 -12 66q-16 25 -62 26
q4 13 4 19q0 9 -4 18h18q64 0 93 -27q33 -31 33 -105q0 -13 -4.5 -82.5t-4.5 -82.5q0 -115 75 -125q-3 -13 -3 -21q0 -6 3 -20z" />
    <glyph glyph-name="asciitilde" unicode="~" horiz-adv-x="653" 
d="M585 581q-9 -67 -46 -105t-96 -38q-47 0 -130 46t-115 46q-60 0 -87 -83q-7 2 -16 2q3 0 -27 -2q10 67 45.5 105.5t92.5 38.5q45 0 128.5 -48t117.5 -48q63 0 89 86q12 -3 20 -3q6 0 24 3z" />
    <glyph glyph-name="dagger" unicode="&#x2020;" horiz-adv-x="522" 
d="M485 405q-109 5 -169 6q-7 0 -12.5 1.5l-5.5 1.5q-2 -1 -2 -3q0 -1 1 -5.5t1 -9.5q4 -116 4 -100q0 -81 -4 -244t-4 -244q-20 3 -36 3q-13 0 -31 -4q0 81 -4 243t-4 243q0 16 2 50q3 41 3 52q0 7 1 11.5l1 4.5q-1 2 -3 3q-2 -1 -15 -3q-71 0 -171 -6q7 32 7 41
q0 11 -6 45q109 -7 172 -8q7 0 15 -3l1 3v6q-1 4 -1 11q-3 119 -8 212q32 -5 45 -5q19 0 43 5q-6 -121 -8 -210q0 -11 -3 -19l3 -3q6 5 18 5q42 0 169 3q-6 -32 -6 -42q0 -7 7 -41z" />
    <glyph glyph-name="cent" unicode="&#xa2;" horiz-adv-x="473" 
d="M436 228q-3 -61 -32 -107q-32 -51 -87 -67q-16 -5 -20 -9q-7 -7 -7 -26q0 4 2 -68q-12 4 -32 4t-37 -4q2 54 2 71q0 25 -22 30q-148 30 -148 230q0 92 32 155q39 76 120 93q19 4 19 22q0 19 -2 66q16 -4 35 -4q20 0 34 4q-2 -46 -2 -68q0 -19 17 -22q122 -23 124 -163
q-9 2 -27 2q-32 0 -50 -3q0 8 -1 22q-8 86 -92 86q-129 0 -129 -185q0 -178 121 -178q101 0 106 119q22 -4 45 -4q15 0 31 4z" />
    <glyph glyph-name="sterling" unicode="&#xa3;" horiz-adv-x="546" 
d="M520 158q-4 -90 -45 -131.5t-132 -41.5q-43 0 -114 20.5t-104 20.5q-28 0 -34 -29q-21 5 -40 5q-12 0 -28 -2q3 60 47 82q25 9 49.5 18.5t44.5 32.5q24 29 24 66q0 24 -15 94q-3 14 -5.5 17t-14.5 3q-10 0 -95 -2q3 15 3 30q0 19 -3 36q8 0 44 -2q27 -2 43 -2q8 0 8 6
l-3 10q-19 64 -19 117q0 91 50.5 143.5t146.5 52.5q172 0 172 -164q-18 4 -37 4q-18 0 -37 -4q-2 51 -23 75.5t-73 24.5q-126 0 -126 -125q0 -43 15 -116q5 -24 16 -24q27 0 69 2q57 2 70 2q-3 -16 -3 -35q0 -15 3 -30q-115 3 -129 3q-5 0 -5 -4q0 2 3 -10q11 -45 11 -86
q0 -83 -50 -118q-14 -10 -14 -15q0 -6 14 -6h9q17 0 40 -2q14 -1 51 -9q31 -6 51 -6q51 0 73 26q18 21 21 73q18 -4 36 -4q19 0 35 4z" />
    <glyph glyph-name="section" unicode="&#xa7;" horiz-adv-x="530" 
d="M478 276q0 -79 -64 -126q-3 -2 -24 -10q-9 -3 -9 -5q0 -4 25 -14q33 -13 52 -51q17 -34 17 -75q0 -76 -53 -124q-58 -53 -164 -53q-212 0 -219 183q17 -6 40 -6q20 0 41 6q4 -64 40 -90q31 -23 96 -23q138 0 138 100q0 62 -82 96q-67 20 -134 41q-116 42 -116 141
q0 46 22.5 84t60.5 51q23 8 23 9t-10 5q-13 4 -21 9q-59 42 -59 118q0 67 46 112q52 51 148 51q188 0 201 -169q-19 6 -40 6q-18 0 -40 -5q-4 102 -121 102q-116 0 -116 -93q0 -58 80 -90q64 -19 129 -38q113 -41 113 -142zM400 264q0 71 -109 98q-48 12 -57 12
q-11 0 -23 -5q-72 -30 -72 -91q0 -46 40 -70q60 -36 122 -36q22 0 29 3q70 30 70 89z" />
    <glyph glyph-name="bullet" unicode="&#x2022;" horiz-adv-x="509" 
d="M372 356q0 -49 -35 -83.5t-83 -34.5t-82.5 34.5t-34.5 83.5t34.5 84.5t82.5 35.5t83 -35.5t35 -84.5z" />
    <glyph glyph-name="paragraph" unicode="&#xb6;" horiz-adv-x="530" 
d="M446 -169q-16 3 -27 3t-23 -3q1 79 1 253l-1 541q0 24 -16 25q-21 1 -20 1q-1 0 -24 -1q-18 -1 -18 -23q-2 -153 -2 -405q0 -277 2 -391q-16 3 -27 3t-24 -3l1 294q0 39 1 77v68q0 26 -7.5 33t-27.5 8q-195 12 -195 193q0 189 221 189h61q40 -1 60 -1q43 0 65 1
q-4 -243 -4 -453q0 -220 4 -409z" />
    <glyph glyph-name="germandbls" unicode="&#xdf;" horiz-adv-x="555" 
d="M517 186q0 -90 -53.5 -143.5t-143.5 -53.5q-80 0 -130 26q18 31 18 67v2q50 -30 109 -30q123 0 123 137q0 101 -67 142q-51 31 -150 31l-23 -1q5 20 5 38q0 19 -5 35q11 -1 30 -1q71 0 104 22q45 30 45 90q0 103 -102 103q-74 0 -102 -51q-20 -38 -20 -122v-477
q-24 6 -39 6q-17 0 -35 -6l1 180l-1 300q0 235 196 235q89 0 136 -48q43 -44 43 -118q0 -92 -95 -130q-8 -3 -31 -6q-16 -2 -16 -8q0 -5 15.5 -7.5t30.5 -4.5q157 -32 157 -207z" />
    <glyph glyph-name="acute" unicode="&#xb4;" 
d="M216 709q-44 -48 -114 -137q-21 3 -29 3q-19 0 -41 -3q29 47 82 137q14 4 50 4q38 0 52 -4z" />
    <glyph glyph-name="dieresis" unicode="&#xa8;" 
d="M258 598q-16 3 -42 3t-44 -3q2 15 2 43t-2 48q18 -3 45 -3q25 0 41 3q-2 -20 -2 -47q0 -29 2 -44zM77 599q-16 2 -45 2t-43 -2q1 12 1 44q0 33 -1 47q12 -1 45 -1q32 0 43 1q-2 -16 -2 -42q0 -28 2 -49z" />
    <glyph glyph-name="AE" unicode="&#xc6;" horiz-adv-x="877" 
d="M803 0q-89 5 -185 5q-118 0 -196 -5v33l2 113q-4 23 -6 27q-4 8 -20 8q-42 1 -64 1q-61 0 -118 -2q-29 -1 -44 -31q-44 -90 -69 -149q-26 5 -42 5q-28 0 -46 -5q207 396 349 694q49 -6 134 -6q22 0 67 1h69q91 0 160 4q-2 -24 -2 -40q0 -17 2 -38q-104 3 -257 3
q-25 0 -30 -3.5t-5 -21.5q-2 -119 -2 -186q0 -15 4.5 -18.5t22.5 -3.5q80 0 256 4q-3 -21 -3 -41t3 -37q-102 3 -218 3h-37q-17 0 -22.5 -4t-5.5 -19q0 -125 1 -192q0 -24 30 -24q186 0 272 4q-2 -15 -2 -44q0 -24 2 -35zM427 624q0 21 -8 21q-10 0 -20 -24l-18 -43
q-56 -117 -158 -321q-4 -8 -4 -11q0 -6 11 -6q10 0 29 1h29q65 0 100 1q27 1 31 5q1 1 5 30v290q0 15 1.5 35t1.5 22z" />
    <glyph glyph-name="Oslash" unicode="&#xd8;" horiz-adv-x="645" 
d="M586 337q0 -350 -261 -350q-86 0 -146 43q-11 8 -14 8q-4 0 -11 -12q-9 -16 -28 -48q-24 28 -42 33l35 52q8 12 8 17q0 2 -9 16q-60 95 -60 250q0 171 68 263t199 92q85 0 144 -43q12 -9 14 -9q3 0 9 9q17 27 27 50q24 -24 43 -29l-33 -54q-7 -11 -7 -18q0 -5 6 -15
q58 -94 58 -255zM439 576q0 5 -13 17q-44 41 -103 41q-186 0 -186 -291q0 -95 26 -166q9 -25 10 -25q4 0 7 6.5t5 12.5q100 156 245 386q9 15 9 19zM508 340q0 95 -28 168q-2 7 -4 15t-6 8q-3 0 -6 -8q-5 -12 -6 -13q-81 -124 -243 -382q-9 -15 -9 -20q0 -6 11 -16
q43 -39 105 -39q186 0 186 287z" />
    <glyph glyph-name="yen" unicode="&#xa5;" horiz-adv-x="531" 
d="M506 678q-102 -180 -151 -277q-16 -31 -16 -30q0 -5 8 -5q4 0 22 3l109 2q-3 -17 -3 -26q0 -10 3 -25q-14 0 -76 2q-49 1 -79 1q-8 0 -16.5 -18t-8.5 -39q0 -23 13 -23q14 0 167 2q-3 -12 -3 -22q0 -9 3 -28q-101 2 -154 2q-23 0 -23 -17q0 -29 1 -80q2 -62 2 -100
q-19 5 -38 5q-18 0 -39 -5l4 182q0 15 -20 15q-16 0 -149 -2q2 11 2 19q0 -2 -2 31h73q54 -1 74 -1q21 0 21 17q0 62 -24 62q-27 0 -74 -1q-58 -2 -70 -2q2 10 2 24q0 15 -2 27l99 -2q2 0 11 -1.5t13 -1.5q5 0 5 4q0 -1 -15 30q-66 135 -150 278q13 -2 39 -2q27 0 45 2
q50 -115 138 -285l11 -26q6 -14 10 -14q5 0 11 15q5 12 10 25q69 134 138 285q16 -2 42 -2q24 0 37 2z" />
    <glyph glyph-name="ordfeminine" unicode="&#xaa;" horiz-adv-x="349" 
d="M285 387h-12q-22 0 -38 -3q-1 11 -1 28v11q0 1 -2 1q-1 0 -7 -9.5t-8 -10.5q-25 -24 -65 -24q-94 0 -94 84q0 62 54 84q23 9 99 16q19 2 19 17v6q0 55 -56 55q-57 0 -57 -38l1 -15q-12 2 -24 2q-10 0 -23 -2q-1 15 -1 14q0 42 32 64q27 19 73 19q73 0 94 -47q9 -20 9 -56
v-57q-1 -38 -1 -50q0 -38 8 -89zM232 526q0 4 -5 4q-6 0 -19 -2.5t-18 -2.5q-42 -4 -56 -10q-29 -14 -29 -51q0 -42 54 -42q71 0 71 81q0 4 1 11.5t1 11.5z" />
    <glyph glyph-name="ordmasculine" unicode="&#xba;" horiz-adv-x="355" 
d="M300 531q0 -153 -120 -153q-121 0 -121 153q0 154 121 154q120 0 120 -154zM251 531q0 111 -71 111t-71 -111q0 -110 71 -110t71 110z" />
    <glyph glyph-name="ae" unicode="&#xe6;" horiz-adv-x="787" 
d="M740 143q-25 -157 -188 -157q-91 0 -141 50q-7 6 -17 23q-7 13 -11 13q-2 0 -13.5 -18t-14.5 -21q-46 -46 -134 -46q-166 0 -166 144q0 103 86 141q48 22 173 29q25 2 31 6.5t6 22.5v16q0 56 -23.5 78.5t-77.5 22.5q-57 0 -80 -17t-23 -55q0 -5 1 -12.5t1 -8.5
q-17 3 -38 3q-17 0 -36 -3q0 2 -1 10t-1 10q0 71 53 108q48 33 126 33q107 0 139 -58q12 -22 14 -22q5 0 15 14q15 20 22 27q41 40 113 40q86 0 134.5 -63t48.5 -187q0 -6 -1 -29q-58 4 -290 4q-14 0 -18 -5t-4 -17q0 -72 29 -116q34 -51 103 -51q94 0 112 93q30 -4 49 -4
q11 0 22 2zM657 327q0 8 -1 15q-15 108 -107 108q-47 0 -80 -36t-43 -95q-1 -6 -1 -11q0 -13 22 -13q49 -1 66 -1q59 0 119 4q25 2 25 29zM353 234q0 12 -14 12h-9q-8 0 -54 -4q-23 -2 -65 -8q-84 -19 -84 -104q0 -77 97 -77q61 0 94.5 38t33.5 107q0 9 1 18v18z" />
    <glyph glyph-name="oslash" unicode="&#xf8;" horiz-adv-x="512" 
d="M460 250q0 -129 -53.5 -197t-150.5 -68q-59 0 -102 25q-14 8 -17 8q-4 0 -11 -12l-20 -33l-42 30l27 38q9 13 9 16q0 1 -9 16q-39 66 -39 177q0 129 53.5 197t150.5 68q61 0 105 -27q11 -7 15 -7t11 12l18 32l46 -27q-10 -12 -30 -41q-6 -9 -6 -15t6 -16q39 -66 39 -176z
M333 416q0 7 -11 14q-27 18 -66 18q-126 0 -126 -198q0 -55 10 -97q6 -25 7 -25q4 0 14 21l165 252q7 11 7 15zM382 250q0 53 -9 93q-1 9 -2.5 19.5t-5.5 10.5t-7 -8q-5 -13 -6 -14l-165 -251q-8 -12 -8 -17q0 -14 33 -23q26 -8 44 -8q126 0 126 198z" />
    <glyph glyph-name="questiondown" unicode="&#xbf;" horiz-adv-x="493" 
d="M325 429q-19 2 -45 2q-28 0 -42 -2q3 23 3 47q0 25 -3 45q28 -5 46 -5q19 0 41 5q-3 -24 -3 -49t3 -43zM449 6q0 -90 -53 -138.5t-148 -48.5q-96 0 -149 50t-53 144q0 69 31 114q29 42 99 81q40 23 54 43q15 24 15 67v23q18 -4 37 -4q15 0 38 4v-16q0 -93 -50 -137
q-46 -29 -93 -58q-50 -36 -50 -111q0 -68 28 -100.5t95 -32.5q70 0 98 31q25 29 25 100q14 -3 36 -3q18 0 40 4v-12z" />
    <glyph glyph-name="exclamdown" unicode="&#xa1;" horiz-adv-x="331" 
d="M208 429q-21 2 -40 2t-47 -2q2 21 2 49q0 27 -2 43q21 -5 42 -5q17 0 45 5q-1 -10 -1 -46q0 -37 1 -46zM213 -176q-24 4 -50 4t-45 -4q0 57 9 262q8 200 13 262q11 -2 23 -2q9 0 27 2q5 -65 14 -262q9 -205 9 -262z" />
    <glyph glyph-name="florin" unicode="&#x192;" horiz-adv-x="531" 
d="M537 695q-13 -33 -16 -75q-33 5 -52 5q-35 0 -52 -14q-35 -29 -59 -140q-1 -5 -1 -8q0 -10 14 -10q-17 0 110 3q-10 -33 -10 -70q-107 4 -112 4q-15 0 -19 -19l-54 -293q-4 -20 -15 -69q-24 -102 -82 -138q-41 -25 -111 -25q-16 0 -48 3q12 34 13 74q14 -1 31 -1
q68 0 91 25.5t43 130.5l57 293q1 5 1 8q0 11 -13 11q-4 0 -83 -4q10 31 11 70q96 -3 84 -3q12 0 16 17q2 7 5 18q21 98 51 142q46 69 157 69q15 0 43 -4z" />
    <glyph glyph-name="guillemotleft" unicode="&#xab;" horiz-adv-x="444" 
d="M394 437q-43 -79 -68 -131q-1 -2 -13 -19q-9 -13 -9 -20q0 -6 9.5 -19t10.5 -16q26 -62 65 -135q-19 2 -37 2q-16 0 -41 -2q-44 91 -88 169q53 93 90 171q25 -1 42 -1q18 0 39 1zM221 433q-43 -73 -72 -133q-1 -1 -11 -14.5t-10 -19.5t9 -18q12 -15 13 -18
q34 -70 69 -130q-18 2 -36 2q-16 0 -43 -2q-46 86 -93 166q44 69 94 167q11 -1 40 -1q28 0 40 1z" />
    <glyph glyph-name="guillemotright" unicode="&#xbb;" horiz-adv-x="444" 
d="M397 268q-44 -69 -94 -167q-11 1 -40 1q-28 0 -40 -1q43 73 72 133q1 1 12 16q9 12 9 18t-9 18q-12 15 -13 18q-34 70 -69 130q18 -2 36 -2q16 0 43 2q46 -86 93 -166zM221 268q-53 -93 -90 -171q-25 1 -42 1q-18 0 -39 -1q43 79 68 131q1 2 13 19q9 13 9 20q0 6 -9.5 19
t-10.5 16q-26 62 -65 135q19 -2 36 -2t42 2q44 -91 88 -169z" />
    <glyph glyph-name="ellipsis" unicode="&#x2026;" horiz-adv-x="950" 
d="M827 0q-21 5 -42 5q-18 0 -46 -5q2 20 2 49t-2 48q21 -2 41 -2q19 0 47 2q-2 -21 -2 -52q0 -29 2 -45zM511 0q-21 5 -42 5q-17 0 -45 -5q2 20 2 49t-2 48q21 -2 40 -2t47 2q-2 -21 -2 -52q0 -29 2 -45zM212 0q-21 5 -41 5q-18 0 -46 -5q2 20 2 49t-2 48q21 -2 40 -2t47 2
q-2 -21 -2 -52q0 -29 2 -45z" />
    <glyph glyph-name="OE" unicode="&#x152;" horiz-adv-x="927" 
d="M853 0q-71 4 -181 4q-113 0 -201 -4v5q0 8 2 21t2 20q0 9 -5 9q-3 0 -8 -8q-8 -10 -10 -12q-55 -48 -127 -48q-126 0 -195 92q-72 95 -72 274q0 172 68.5 267.5t198.5 95.5q65 0 118 -42q4 -3 14.5 -15t13.5 -12q4 0 4 7q0 4 -1.5 14t-1.5 13l-1 27q85 -4 195 -4
q109 0 178 4q-2 -24 -2 -38q0 -15 2 -36q-104 3 -258 3q-25 0 -30 -3.5t-5 -21.5q-1 -59 -1 -173v-27q0 -14 4 -17.5t21 -3.5h23q58 0 234 4q-3 -21 -3 -39t3 -35q-102 3 -223 3h-32q-17 0 -22 -4t-5 -19v-206q0 -24 30 -24q187 0 273 4q-3 -22 -3 -40t3 -35zM474 333
q0 41 -1 182q0 38 -16 60q-53 74 -134 74q-186 0 -186 -299q0 -145 50 -223q49 -74 135 -74q81 0 132 62q19 23 19 66z" />
    <glyph glyph-name="oe" unicode="&#x153;" horiz-adv-x="822" 
d="M775 143q-12 -75 -51 -111q-50 -46 -137 -46q-98 0 -146 59q-2 3 -10 19q-6 12 -11 12t-11 -13q-10 -17 -12 -20q-49 -58 -139 -58q-97 0 -150.5 68t-53.5 197t53.5 197t150.5 68q99 0 148 -68q2 -3 10 -21q5 -14 10 -14q6 0 13 14q10 20 11 21q52 69 140 69
q86 0 134.5 -63t48.5 -187q0 -6 -1 -29q-58 4 -213 4h-77q-16 0 -19 -3t-3 -20v-1q0 -78 35 -121.5t97 -43.5q94 0 112 93q30 -4 49 -4q11 0 22 2zM692 327q0 8 -1 15q-15 108 -107 108q-47 0 -80 -36t-43 -95q-1 -6 -1 -11q0 -13 22 -13q49 -1 66 -1q59 0 119 4q25 2 25 29
zM384 250q0 198 -126 198t-126 -198t126 -198t126 198z" />
    <glyph glyph-name="endash" unicode="&#x2013;" horiz-adv-x="578" 
d="M546 232q-84 2 -243 2q-162 0 -271 -2q2 19 2 33q0 12 -2 37q111 -2 275 -2q158 0 239 2q-2 -16 -2 -37q0 -20 2 -33z" />
    <glyph glyph-name="emdash" unicode="&#x2014;" horiz-adv-x="930" 
d="M898 233q-209 3 -465 3q-248 0 -401 -3q2 13 2 33t-2 34h866q-2 -15 -2 -34t2 -33z" />
    <glyph glyph-name="quotedblleft" unicode="&#x201c;" horiz-adv-x="394" 
d="M333 460q-28 2 -37 2q-10 0 -19 -1q-36 123 -49 248q20 -2 40 -2q19 0 42 2q0 -103 23 -249zM180 460q-28 2 -37 2q-10 0 -19 -1q-54 129 -67 248q20 -2 40 -2q19 0 42 2q0 -99 41 -249z" />
    <glyph glyph-name="quotedblright" unicode="&#x201d;" horiz-adv-x="394" 
d="M337 709q-13 -119 -67 -248q-9 1 -19 1q-9 0 -37 -2q41 150 41 249q23 -2 42 -2q20 0 40 2zM166 709q-13 -125 -49 -248q-9 1 -19 1q-9 0 -37 -2q23 146 23 249q23 -2 42 -2q20 0 40 2z" />
    <glyph glyph-name="quoteleft" unicode="&#x2018;" horiz-adv-x="223" 
d="M162 460q-28 2 -37 2q-10 0 -19 -1q-36 123 -49 248q20 -2 40 -2q19 0 42 2q0 -103 23 -249z" />
    <glyph glyph-name="quoteright" unicode="&#x2019;" horiz-adv-x="223" 
d="M166 709q-13 -125 -49 -248q-9 1 -19 1q-9 0 -37 -2q23 146 23 249q23 -2 42 -2q20 0 40 2z" />
    <glyph glyph-name="fraction" unicode="&#x2044;" horiz-adv-x="84" 
d="M255 667q-210 -364 -378 -675q-7 3 -26 3q-21 0 -28 -3q183 317 377 675q11 -2 28 -2t27 2z" />
    <glyph glyph-name="currency" unicode="&#xa4;" horiz-adv-x="537" 
d="M500 162l-52 -48l-105 100q-33 -19 -76 -19q-42 0 -74 18l-104 -98l-52 48l107 102q-16 31 -16 67q0 39 16 69l-107 102l52 48l106 -100q31 17 72 17t74 -18l106 97l53 -48l-109 -100q17 -32 17 -67t-17 -67zM349 332q0 35 -20 58q-23 26 -62 26q-38 0 -59.5 -25
t-21.5 -59q0 -35 20 -58q23 -27 61 -27q39 0 62 27q20 23 20 58z" />
    <glyph glyph-name="guilsinglleft" unicode="&#x2039;" horiz-adv-x="269" 
d="M221 100q-18 2 -36 2q-16 0 -43 -2q-30 57 -95 166q44 69 94 167q11 -1 40 -1q28 0 40 1q-43 -73 -72 -133q-1 -1 -11 -14.5t-10 -19.5t9 -18q12 -15 13 -18q24 -50 71 -130z" />
    <glyph glyph-name="guilsinglright" unicode="&#x203a;" horiz-adv-x="269" 
d="M222 267q-44 -69 -94 -167q-11 1 -39 1q-29 0 -41 -1q43 73 72 133q1 1 12 16q9 12 9 18t-9 18q-12 15 -13 18q-34 70 -69 130q18 -2 36 -2q16 0 43 2q46 -86 93 -166z" />
    <glyph glyph-name="fi" unicode="&#xf001;" horiz-adv-x="516" 
d="M432 612q-15 3 -38 3q-24 0 -42 -3q3 27 3 52t-3 45q17 -2 44 -2q24 0 36 2q-2 -16 -2 -48t2 -49zM432 0q-24 5 -41 5q-22 0 -39 -5q3 105 3 239q0 131 -3 261q18 -5 40 -5q16 0 40 5q-3 -128 -3 -257q0 -134 3 -243zM283 663q0 -20 -3 -34q-25 10 -47 10q-33 0 -46 -28
q-8 -18 -9 -61q0 -5 -1 -17t-1 -18q0 -11 2.5 -14t13.5 -3q63 0 89 2q-3 -17 -3 -35t3 -32q-52 2 -93 2q-12 0 -12 -12q0 -190 2 -423q-20 5 -39 5q-20 0 -37 -5l2 424q0 11 -13 11q-19 0 -73 -2q4 18 4 34t-4 33q36 -2 71 -2q14 0 14 17q0 9 -1 22.5t-1 16.5
q0 80 33.5 118.5t91.5 38.5q27 0 54 -9q3 -21 3 -39z" />
    <glyph glyph-name="fl" unicode="&#xf002;" horiz-adv-x="516" 
d="M433 0q-18 4 -37 4q-24 0 -44 -4q2 127 2 332q0 209 -2 377q19 -4 43 -4q19 0 38 4q-2 -172 -2 -377q0 -212 2 -332zM283 663q0 -20 -3 -34q-25 10 -47 10q-33 0 -46 -28q-8 -18 -9 -61q0 -5 -1 -17t-1 -18q0 -11 2.5 -14t13.5 -3q63 0 89 2q-3 -17 -3 -35t3 -32
q-52 2 -93 2q-12 0 -12 -12q0 -190 2 -423q-20 5 -39 5q-20 0 -37 -5l2 424q0 11 -13 11q-19 0 -73 -2q4 18 4 34t-4 33q36 -2 71 -2q14 0 14 17q0 9 -1 22.5t-1 16.5q0 80 33.5 118.5t91.5 38.5q27 0 54 -9q3 -21 3 -39z" />
    <glyph glyph-name="daggerdbl" unicode="&#x2021;" horiz-adv-x="522" 
d="M485 33q-109 7 -173 8q-7 0 -14 3l-2 -3q0 -2 1 -6t1 -11q3 -119 8 -212q-32 5 -46 5q-19 0 -43 -5q4 73 9 210q0 11 2 19l-2 3q-6 -5 -18 -5q-43 0 -170 -3q6 32 6 42q0 7 -7 41q109 -5 169 -6q7 0 12.5 -1.5l5.5 -1.5q2 1 2 3v5q-1 5 -1 10q0 12 -4 75q-2 47 -2 76
q0 22 2 58q3 46 3 58q0 7 1 11.5l1 4.5q-1 2 -3 3q-2 -1 -15 -3q-71 0 -171 -6q7 32 7 41q0 11 -6 45q109 -7 172 -8q7 0 15 -3l1 3v6q-1 4 -1 11q-3 119 -8 212q32 -5 45 -5q19 0 43 5q-6 -121 -8 -210q0 -11 -3 -19l3 -3q6 5 18 5q42 0 169 3q-6 -32 -6 -42q0 -7 7 -41
q-109 5 -169 6q-7 0 -12.5 1.5l-5.5 1.5q-2 -1 -2 -3q0 -1 1 -5.5t1 -9.5q0 -13 4 -71q2 -44 2 -71q0 -24 -2 -62q-3 -48 -4 -63q0 -7 -1 -12v-4q1 -2 2 -3q2 1 15 3q70 0 170 6q-6 -27 -6 -41q0 -5 7 -45z" />
    <glyph glyph-name="periodcentered" unicode="&#xb7;" horiz-adv-x="169" 
d="M142 285q-21 3 -54 3t-60 -3q2 16 2 55q0 41 -2 62q26 -3 59 -3t55 3q-4 -31 -4 -61q0 -29 4 -56z" />
    <glyph glyph-name="periodcentered" unicode="&#x2219;" horiz-adv-x="169" 
d="M142 285q-21 3 -54 3t-60 -3q2 16 2 55q0 41 -2 62q26 -3 59 -3t55 3q-4 -31 -4 -61q0 -29 4 -56z" />
    <glyph glyph-name="quotesinglbase" unicode="&#x201a;" horiz-adv-x="241" 
d="M169 97q-13 -125 -49 -248q-9 1 -19 1q-9 0 -37 -2q23 117 23 249q23 -2 43 -2q19 0 39 2z" />
    <glyph glyph-name="quotedblbase" unicode="&#x201e;" horiz-adv-x="394" 
d="M333 97q-13 -119 -67 -248q-9 1 -19 1q-9 0 -37 -2q41 150 41 249q23 -2 42 -2q20 0 40 2zM162 97q-13 -125 -49 -248q-9 1 -19 1q-9 0 -37 -2q23 146 23 249q23 -2 42 -2q20 0 40 2z" />
    <glyph glyph-name="perthousand" unicode="&#x2030;" horiz-adv-x="1101" 
d="M1060 175q0 -83 -39 -134t-106 -51q-66 0 -105 50t-39 132q0 86 38.5 137t105.5 51q68 0 106.5 -50t38.5 -135zM723 175q0 -83 -39 -134t-106 -51q-66 0 -105 50t-39 132q0 86 38.5 137t105.5 51q68 0 106.5 -50t38.5 -135zM629 686q-78 -126 -412 -686q-14 5 -34 5
q-18 0 -40 -5q110 172 411 686q18 -4 38 -4t37 4zM334 510q0 -83 -39 -133.5t-106 -50.5q-66 0 -105 50.5t-39 131.5q0 86 38.5 137t105.5 51q68 0 106.5 -50.5t38.5 -135.5zM993 171v3q0 58 -10 86q-18 48 -68 48q-79 0 -79 -133q0 -132 80 -132q77 0 77 128zM657 171
q0 59 -10 87q-17 50 -69 50q-79 0 -79 -133q0 -132 80 -132q78 0 78 128zM268 506q0 73 -18.5 105.5t-60.5 32.5q-79 0 -79 -133q0 -132 80 -132q78 0 78 127z" />
    <glyph glyph-name="dotlessi" unicode="&#x131;" 
d="M163 0q-24 5 -40 5q-22 0 -39 -5q3 105 3 239q0 131 -3 261q18 -5 40 -5q15 0 39 5q-2 -85 -2 -257q0 -170 2 -243z" />
    <glyph glyph-name="circumflex" unicode="&#x2c6;" 
d="M258 576q-22 3 -42 3q-8 0 -29 -3q-13 21 -41 54q-5 8 -10.5 17t-11.5 9q-7 0 -12.5 -9.5t-10.5 -17.5q-30 -36 -41 -53q-21 3 -28 3q-20 0 -42 -3q36 47 97 137q26 -3 37 -3t37 3q14 -24 56 -81q40 -52 41 -56z" />
    <glyph glyph-name="tilde" unicode="&#x2dc;" 
d="M280 692l-1 -9q-4 -40 -27 -68q-26 -32 -65 -32q-27 0 -67 23.5t-56 23.5q-35 0 -47 -51q-13 3 -23 3q-11 0 -26 -3l1 9q5 43 32.5 73t60.5 30q27 0 67 -23.5t61 -23.5q34 0 45 48q14 -4 23 -4q10 0 22 4z" />
    <glyph glyph-name="macron" unicode="&#xaf;" 
d="M262 586q-44 2 -129 2q-88 0 -147 -2q3 12 3 26t-3 28q60 -2 149 -2q85 0 127 2q-4 -19 -4 -28q0 -11 4 -26z" />
    <glyph glyph-name="macron" unicode="&#x2c9;" 
d="M262 586q-44 2 -129 2q-88 0 -147 -2q3 12 3 26t-3 28q60 -2 149 -2q85 0 127 2q-4 -19 -4 -28q0 -11 4 -26z" />
    <glyph glyph-name="breve" unicode="&#x2d8;" 
d="M266 690q-17 -132 -145 -132q-122 0 -139 132q12 -3 23 -3t26 3q15 -74 92 -74q79 0 95 74q15 -3 25 -3q11 0 23 3z" />
    <glyph glyph-name="dotaccent" unicode="&#x2d9;" 
d="M174 554q-14 2 -47 2q-37 0 -54 -2q3 24 3 50q0 25 -3 57q25 -3 53 -3q26 0 48 3q-3 -24 -3 -56q0 -30 3 -51z" />
    <glyph glyph-name="ring" unicode="&#x2da;" 
d="M219 652q0 -42 -28.5 -71t-67.5 -29q-37 0 -65.5 27.5t-28.5 71.5q0 42 28 70.5t67 28.5t67 -28t28 -70zM180 651q0 26 -16.5 44t-39.5 18t-39.5 -18t-16.5 -44t16 -43.5t39 -17.5q24 0 40.5 18t16.5 43z" />
    <glyph glyph-name="cedilla" unicode="&#xb8;" 
d="M218 -102q0 -36 -33 -58.5t-84 -22.5q-36 0 -72 15q8 16 10 37q32 -9 56 -9q57 0 57 34q0 29 -60 32q-21 1 -27 1q23 37 37 82h46l-14 -35q-7 -9 -7 -12q0 -1 4 -3q3 0 10 2q77 -5 77 -63z" />
    <glyph glyph-name="hungarumlaut" unicode="&#x2dd;" 
d="M295 709q-44 -48 -114 -137q-21 3 -29 3q-19 0 -41 -3q29 47 83 137q15 -5 32 -5q25 0 69 5zM137 709q-44 -48 -114 -137q-21 3 -29 3q-20 0 -42 -3q29 47 83 137q15 -5 33 -5q25 0 69 5z" />
    <glyph glyph-name="ogonek" unicode="&#x2db;" 
d="M213 -140q-30 -9 -63 -9q-52 0 -83.5 22t-31.5 58q0 60 68 76q25 -1 41 -1q14 0 16 1v-6q-22 -11 -44 -23q-18 -12 -18 -41q0 -43 69 -43q19 0 37 3q2 -21 9 -37z" />
    <glyph glyph-name="caron" unicode="&#x2c7;" 
d="M258 713q-36 -47 -97 -137q-26 3 -37 3t-37 -3q-14 24 -56 81q-40 52 -41 56q22 -3 42 -3q7 0 28 3q10 -16 42 -54q1 -1 9 -16q6 -10 12 -10q7 0 13 9.5t11 17.5q26 31 40 53q21 -3 29 -3q20 0 42 3z" />
    <glyph glyph-name="Lslash" unicode="&#x141;" horiz-adv-x="464" 
d="M433 0q-71 4 -167 4q-95 0 -182 -4l2 254q0 3 1 13v12q0 3 -3 3l-11 -8l-53 -38l3 78l50 34q13 9 13 36q0 83 -2 310q17 -3 37 -3t42 3q-2 -87 -2 -253q0 -4 -1 -15t-1 -16q0 -4 3 -4q1 0 11 7q34 23 155 111q-2 -23 -2 -40t2 -36l-158 -107q-9 -6 -9 -22q0 -20 2 -215
q0 -20 3.5 -24.5t16.5 -4.5h31q138 0 219 4q-3 -15 -3 -41q0 -23 3 -38z" />
    <glyph glyph-name="lslash" unicode="&#x142;" 
d="M230 524q-2 -23 -2 -50q0 -20 1 -30l-57 -53q-9 -8 -9 -59v-127q0 -145 1 -205q-25 3 -41 3q-24 0 -39 -3q2 127 2 266v39q0 6 -4 6q-2 0 -62 -59q3 41 3 67v15l53 49q10 9 10 27q0 131 -2 299q19 -4 40 -4q18 0 40 4l-2 -238q0 -5 6 -5q3 0 62 58z" />
    <glyph glyph-name=".null" horiz-adv-x="30" 
 />
    <glyph glyph-name="Eth" unicode="&#xd0;" horiz-adv-x="628" 
d="M570 341q0 -164 -69.5 -252.5t-203.5 -88.5q-27 0 -76 1.5t-76 1.5q-37 0 -61 -3q3 146 3 293q0 16 -14 16q-32 0 -54 -2q4 15 4 34t-4 33q35 -3 55 -3q13 0 13 12q0 115 -3 311q46 -3 73 -3q23 0 63.5 1.5t63.5 1.5q286 0 286 -353zM489 342q0 128 -42 196
q-55 88 -187 88q-7 0 -72 -1q-16 0 -20.5 -5t-4.5 -23q-3 -132 -3 -212q0 -15 15 -15q85 0 121 4q-4 -15 -4 -31q0 -17 4 -36q-45 3 -124 3q-12 0 -12 -12q0 -67 2 -169q1 -41 8.5 -49.5t44.5 -10.5q19 -1 40 -1q132 0 186 69q48 62 48 205z" />
    <glyph glyph-name="eth" unicode="&#xf0;" horiz-adv-x="546" 
d="M465 257q0 -120 -48 -191q-54 -81 -159 -81q-94 0 -148 61q-56 65 -56 189q0 125 57 188q53 58 147 58q21 0 46 -10t37 -25q9 -12 17 -12q6 0 6 6l-8 18q-42 96 -84 131q-10 8 -9 8q-5 0 -9 -7l-68 -55q-11 27 -33 59l46 31q9 2 9 6q0 1 -14 5q-22 7 -46 7q-34 0 -86 -23
q2 11 4 73q38 16 82 16q53 0 109 -26q11 -5 12 -5q4 0 12 6l57 45q12 -31 34 -62l-39 -22q-2 -1 -6.5 -2t-4.5 -4l9 -8q59 -53 96.5 -159t37.5 -215zM384 235q0 107 -26 143t-100 36q-126 0 -126 -179q0 -183 126 -183t126 183z" />
    <glyph glyph-name="Scaron" unicode="&#x160;" horiz-adv-x="557" 
d="M415 863q-36 -47 -97 -137q-26 3 -37 3t-37 -3q-14 24 -56 81q-40 52 -41 56q22 -3 42 -3q7 0 28 3q10 -16 42 -54q1 -1 9 -16q6 -10 12 -10q7 0 13 9.5t11 17.5q26 31 40 53q21 -3 29 -3q20 0 42 3zM506 185q0 -91 -61.5 -145t-165.5 -54q-101 0 -162 51q-66 56 -66 159
q0 18 2 35q14 -3 38 -3q25 0 44 3q-2 -16 -2 -31q0 -70 42 -106.5t112 -36.5q137 0 137 121q0 71 -80 107q-22 10 -90 33q-60 20 -93 39q-93 52 -93 161q0 80 59.5 134.5t153.5 54.5q88 0 149 -46q67 -50 67 -137q0 -29 -2 -46q-16 3 -39 3t-42 -3q1 27 1 32q0 60 -39 92
t-100 32q-67 0 -101 -35q-28 -30 -28 -77q0 -63 66 -98q27 -14 83 -33q64 -21 90 -33q120 -53 120 -173z" />
    <glyph glyph-name="scaron" unicode="&#x161;" horiz-adv-x="454" 
d="M357 713q-36 -47 -97 -137q-26 3 -37 3t-37 -3q-14 24 -56 81q-40 52 -41 56q22 -3 42 -3q7 0 28 3q10 -16 42 -54q1 -1 9 -16q6 -10 12 -10q7 0 13 9.5t11 17.5q26 31 40 53q21 -3 29 -3q20 0 42 3zM406 145q0 -70 -50.5 -114.5t-134.5 -44.5q-178 0 -178 161v9
q12 -3 34 -3q24 0 37 3v-7q0 -56 31 -79q27 -19 82 -19q48 0 77.5 22t29.5 61q0 53 -73 76q-67 20 -134 41q-71 35 -71 119q0 62 48 103.5t122 41.5q87 0 131 -53q30 -36 30 -103q-13 2 -30 2q-22 0 -39 -3q0 90 -96 90q-93 0 -93 -71q0 -54 72 -77q66 -20 133 -39
q72 -35 72 -116z" />
    <glyph glyph-name="Yacute" unicode="&#xdd;" horiz-adv-x="556" 
d="M428 859q-44 -48 -114 -137q-21 3 -29 3q-19 0 -41 -3q29 47 82 137q20 1 51 1q32 0 51 -1zM541 694q-79 -140 -202 -364q-16 -31 -20 -48t-4 -55q0 -99 1 -227q-21 4 -38 4t-39 -4l2 224q0 60 -24 106q-76 135 -202 364q27 -4 47 -4t43 4q56 -103 149 -275q9 -17 17 -49
q4 -17 9 -17q4 0 9 18.5t21 47.5q56 102 146 275q21 -4 40 -4q21 0 45 4z" />
    <glyph glyph-name="yacute" unicode="&#xfd;" horiz-adv-x="452" 
d="M342 709q-44 -48 -114 -137q-21 3 -29 3q-19 0 -41 -3q29 47 82 137q19 1 60 1q32 0 42 -1zM437 500l-162 -500q-32 -100 -53 -133q-41 -65 -111 -65q-34 0 -65 7q4 18 4 36q0 12 -4 36q33 -10 58 -10q37 0 62 28t25 69q0 30 -13 70l-24 66q-48 132 -139 396q31 -3 49 -3
q26 0 37 3q34 -113 113 -363q5 -23 13 -57q2 -9 6 -9t6 9q8 42 12 56q24 73 53 183q36 133 50 181q12 -4 37 -4q16 0 46 4z" />
    <glyph glyph-name="Thorn" unicode="&#xde;" horiz-adv-x="553" 
d="M508 352q0 -106 -67 -163q-63 -53 -172 -53q-15 0 -46 1h-45q-11 0 -13.5 -2.5t-2.5 -13.5v-22q0 -4 2 -99q-17 4 -40 4q-16 0 -40 -4q3 153 3 342q0 155 -3 352q16 -3 38 -3q23 0 42 3q-1 -30 -1 -117q0 -9 17 -9t50 1t50 1q109 0 168.5 -55.5t59.5 -162.5zM426 351
q0 60 -32 100q-39 49 -112 49q-27 0 -96 -3q-15 -1 -19 -3.5t-4 -14.5q-1 -29 -1 -84v-162q0 -16 3 -20t15 -5q24 -1 63 -1q101 0 145 38q38 34 38 106z" />
    <glyph glyph-name="thorn" unicode="&#xfe;" horiz-adv-x="537" 
d="M483 258q0 -117 -42 -188q-50 -85 -150 -85q-88 0 -116 57l-7 14q-10 21 -14 21q-3 0 -3 -6q0 -7 2.5 -31t2.5 -41l1 -188q-29 4 -44 4q-17 0 -36 -4l2 436q0 259 -2 462q22 -2 40 -2q17 0 39 2q-2 -75 -7 -224l-1 -33q0 -5 -1.5 -13.5t-1.5 -10.5q0 -11 4 -11q5 0 10 11
q43 87 141 87q183 0 183 -257zM405 256q0 193 -124 193q-42 0 -83 -41q-35 -36 -40 -100q-2 -28 -2 -83q0 -75 14 -104q34 -69 107 -69q70 0 100 53q28 49 28 151z" />
    <glyph glyph-name="nonmarkingreturn" horiz-adv-x="30" 
 />
    <glyph glyph-name="Zcaron" unicode="&#x17d;" horiz-adv-x="458" 
d="M357 863q-36 -47 -97 -137q-26 3 -37 3t-37 -3q-14 24 -56 81q-40 52 -41 56q22 -3 42 -3q7 0 28 3q10 -16 42 -54q1 -1 11 -16q6 -10 10 -10q5 0 13 10q5 9 11 17q26 31 40 53q21 -3 29 -3q20 0 42 3zM438 0l-265 4q-125 0 -153 -4q2 17 2 36q0 18 -2 31l278 477
q9 16 34 51q14 16 14 24q0 7 -19 7h-50q-44 0 -132 -3q-97 -4 -117 -4q2 13 2 35t-2 40l258 -4q61 0 147 4q1 -19 1 -30q0 -10 -1 -30l-315 -543q-3 -6 -9.5 -13t-6.5 -10q0 -2 6 -2q4 0 17.5 2t18.5 2l294 7q-4 -21 -4 -39q0 -10 4 -38z" />
    <glyph glyph-name="zcaron" unicode="&#x17e;" horiz-adv-x="410" 
d="M339 713q-36 -47 -97 -137q-26 3 -37 3t-37 -3q-14 24 -56 81q-40 52 -41 56q22 -3 42 -3q7 0 28 3q10 -16 42 -54q1 -1 9 -16q6 -10 12 -10q7 0 13 9.5t11 17.5q26 31 40 53q21 -3 29 -3q20 0 42 3zM375 0q-135 3 -228 3q-87 0 -112 -3q2 13 2 31t-2 32q79 120 210 328
q5 7 18 22t13 17q0 3 -10 3h-12q-9 -1 -12 -1h-48q-19 0 -140 -4q3 16 3 39q0 17 -3 33q107 -4 198 -4q82 0 114 4q1 -18 1 -29t-1 -29q-87 -134 -213 -331q-9 -14 -21 -27q-8 -9 -8 -13q0 -3 6 -3h23q17 1 25 1q119 1 197 3q-2 -24 -2 -40q0 -13 2 -32z" />
    <glyph glyph-name="onehalf" unicode="&#xbd;" horiz-adv-x="606" 
d="M578 -2q-41 2 -109 2q-66 0 -121 -2v5q0 37 -4 47q39 29 104 84q47 45 61 66q26 35 26 72q0 75 -74 75q-73 0 -73 -77v-14q-8 3 -21 3q-9 0 -21 -3v7q0 57 35 90q32 31 82 31q53 0 84 -30.5t31 -81.5q0 -50 -35 -94q-37 -47 -139 -124l-23 -17q0 -3 6 -3q3 0 10 1t10 1
q71 0 171 4q-2 -8 -2 -24q0 -9 2 -18zM515 694q-246 -426 -395 -702q-7 3 -26 3q-21 0 -28 -3q222 386 394 702q11 -2 28 -2t27 2zM166 312q-10 4 -20 4t-24 -4q0 26 1 81v82v114q0 4 1 12.5t1 11.5q0 6 -3 6q-2 0 -8 -6t-10 -8q-29 -13 -58 -23q2 7 2 23q0 11 -2 18
q69 19 94 71q5 -1 13 -1t13 1l-1 -201q0 -113 1 -181z" />
    <glyph glyph-name="onequarter" unicode="&#xbc;" horiz-adv-x="606" 
d="M515 694q-246 -426 -395 -702q-7 3 -26 3q-21 0 -28 -3q222 386 394 702q11 -2 28 -2t27 2zM565 84q-19 1 -44 1q-13 0 -13 -14q0 -44 1 -71q-15 3 -22 3q-10 0 -21 -3q1 42 1 70q0 16 -16 16q-81 0 -143 -2q2 15 2 27q0 11 -1 16q49 87 139 255q17 -3 33 -3q14 0 27 3
q-1 -63 -1 -245q0 -14 12 -14h22q18 1 24 1q-2 -9 -2 -16q0 -16 2 -24zM166 312q-10 4 -20 4t-24 -4q0 26 1 81v82v114q0 4 1 12.5t1 11.5q0 6 -3 6q-2 0 -8 -6t-10 -8q-29 -13 -58 -23q2 7 2 23q0 11 -2 18q69 19 94 71q5 -1 13 -1t13 1l-1 -201q0 -113 1 -181zM468 195v51
q-1 32 -1 47v32q0 2 1 5v5q0 3 -3 3q-5 0 -8 -7q-7 -18 -15 -32q-28 -54 -86 -163q-8 -15 -8 -11q0 -3 4 -3q1 0 5 1t6 1h14q12 -1 21 -1h55q10 0 13 5q1 2 1 8.5t1 28.5v30z" />
    <glyph glyph-name="onesuperior" unicode="&#xb9;" horiz-adv-x="314" 
d="M189 312q-10 4 -20 4t-24 -4q0 26 1 81v82v114q0 4 1 12.5t1 11.5q0 6 -3 6q-2 0 -8 -6t-10 -8q-29 -13 -58 -23q2 7 2 23q0 11 -2 18q69 19 94 71q5 -1 13 -1t13 1l-1 -201q0 -113 1 -181z" />
    <glyph glyph-name="threequarters" unicode="&#xbe;" horiz-adv-x="606" 
d="M548 694q-246 -426 -395 -702q-7 3 -27 3t-27 -3q222 386 394 702q11 -2 28 -2t27 2zM276 418q0 -47 -34 -78t-93 -31q-54 0 -85.5 30.5t-31.5 83.5q12 -3 24 -3t20 3q0 -78 74 -78q80 0 80 73q0 76 -78 76q-14 0 -48 -2q1 6 1 18q0 13 -1 19q32 -2 50 -2q69 0 69 71
q0 66 -72 66q-65 0 -70 -69q-11 3 -23 3t-20 -3q2 47 34.5 76.5t80.5 29.5q53 0 83 -29t30 -74q0 -53 -48 -77q-1 0 -11.5 -2.5t-10.5 -6.5t10 -6q7 -2 14 -3q56 -25 56 -85zM565 84q-19 1 -44 1q-13 0 -13 -14q0 -44 1 -71q-15 3 -22 3q-10 0 -21 -3q1 42 1 70q0 16 -16 16
q-81 0 -143 -2q2 15 2 27q0 11 -1 16q49 87 139 255q17 -3 33 -3q14 0 27 3q-1 -63 -1 -245q0 -14 12 -14h22q18 1 24 1q-2 -9 -2 -16q0 -16 2 -24zM468 195v51q-1 32 -1 47v32q0 2 1 5v5q0 3 -3 3q-5 0 -8 -7q-7 -18 -15 -32q-28 -54 -86 -163q-8 -15 -8 -11q0 -3 4 -3
q1 0 5 1t6 1h16q15 -1 29 -1h45q10 0 13 5q1 2 1 8.5t1 28.5v30z" />
    <glyph glyph-name="threesuperior" unicode="&#xb3;" horiz-adv-x="314" 
d="M276 418q0 -47 -34 -78t-93 -31q-54 0 -85.5 30.5t-31.5 83.5q12 -3 24 -3t20 3q0 -78 74 -78q80 0 80 73q0 76 -78 76q-14 0 -48 -2q1 6 1 18q0 13 -1 19q32 -2 50 -2q69 0 69 71q0 66 -72 66q-65 0 -70 -69q-11 3 -23 3t-20 -3q2 47 34.5 76.5t80.5 29.5q53 0 83 -29
t30 -74q0 -53 -48 -77q-1 0 -11.5 -2.5t-10.5 -6.5t10 -6q7 -2 14 -3q56 -25 56 -85z" />
    <glyph glyph-name="twosuperior" unicode="&#xb2;" horiz-adv-x="314" 
d="M269 316q-41 2 -109 2q-67 0 -122 -2v5q0 38 -3 46q38 30 103 85q48 46 62 66q26 35 26 72q0 75 -74 75q-73 0 -73 -78v-13q-8 3 -21 3q-10 0 -22 -3v7q0 57 34 89t84 32q53 0 84 -30.5t31 -81.5q0 -48 -36 -94q-39 -49 -139 -125l-22 -17q0 -3 6 -3q3 0 10 1.5t10 1.5
h53q8 0 118 4q-2 -8 -2 -24q0 -9 2 -18z" />
    <glyph glyph-name="brokenbar" unicode="&#xa6;" horiz-adv-x="235" 
d="M148 439q-10 2 -29 2t-32 -2q1 62 1 126q0 57 -1 129q20 -2 32 -2q15 0 29 2l-1 -132q0 -40 1 -123zM148 0q-10 2 -29 2t-32 -2q1 62 1 126q0 57 -1 129q20 -2 32 -2q15 0 29 2l-1 -132q0 -40 1 -123z" />
    <glyph glyph-name="minus" unicode="&#xad;" horiz-adv-x="570" 
d="M505 220q-146 3 -220 3q-122 0 -221 -3q3 18 3 34q0 11 -3 33q102 -3 221 -3q76 0 220 3q-3 -18 -3 -35q0 -19 3 -32z" />
    <glyph glyph-name="minus" unicode="&#x2212;" horiz-adv-x="570" 
d="M505 220q-146 3 -220 3q-122 0 -221 -3q3 18 3 34q0 11 -3 33q102 -3 221 -3q76 0 220 3q-3 -18 -3 -35q0 -19 3 -32z" />
    <glyph glyph-name="multiply" unicode="&#xd7;" horiz-adv-x="570" 
d="M479 412l-129 -134q-21 -22 -21 -27q0 -2 18 -21l130 -134q-31 -21 -47 -51l-126 141q-15 17 -18 17q-5 0 -23 -20l-128 -140q-16 27 -44 47l132 137q19 20 19 24q0 6 -6.5 11t-12.5 10l-130 133q28 23 47 51l125 -138q18 -20 21 -20q5 0 22 19l128 141q14 -24 43 -46z
" />
    <glyph glyph-name="RS" horiz-adv-x="1134" 
 />
    <glyph glyph-name="US" horiz-adv-x="1134" 
 />
    <glyph glyph-name="Adieresis" unicode="&#xc4;" horiz-adv-x="593" 
d="M431 748q-16 3 -42 3t-44 -3q2 15 2 43t-2 48q18 -3 45 -3q25 0 41 3q-1 -10 -1 -29v-33q0 -22 1 -29zM250 749q-16 2 -45 2t-43 -2q1 12 1 44q0 33 -1 47q12 -1 45 -1q32 0 43 1q-2 -16 -2 -42q0 -28 2 -49zM577 0q-30 3 -47 3q-14 0 -43 -3q-15 45 -46 147
q-4 14 -7.5 17t-19.5 3q-76 2 -142 2q-37 0 -88 -1q-23 0 -28 -3t-10 -19q-16 -51 -44 -146q-25 3 -41 3q-19 0 -45 -3q96 286 226 694q20 -3 51 -3q27 0 53 3q18 -65 105 -321q63 -186 126 -373zM416 241q0 2 -4.5 9t-5.5 11q-34 106 -96 301l-13 52q-3 10 -5 10
q-4 0 -6 -10q-5 -29 -12 -51q-30 -95 -93 -300q-1 -4 -5.5 -12.5t-4.5 -10.5q0 -5 9 -5q19 0 58 1t58 1q48 0 94 -1q2 0 8 -1h9q9 0 9 6z" />
    <glyph glyph-name="Aring" unicode="&#xc5;" horiz-adv-x="593" 
d="M386 812q0 -44 -27.5 -68.5t-65.5 -24.5q-37 0 -64 24t-27 67q0 44 29 70q26 23 63 23t64.5 -24t27.5 -67zM577 0q-30 3 -47 3q-14 0 -43 -3q-15 45 -46 147q-4 14 -7.5 17t-19.5 3q-76 2 -142 2q-37 0 -88 -1q-23 0 -28 -3t-10 -19q-16 -51 -44 -146q-25 3 -41 3
q-19 0 -45 -3q96 286 226 694q20 -3 51 -3q27 0 53 3q18 -65 105 -321q63 -186 126 -373zM344 811q0 24 -15 38t-35 14q-21 0 -36 -13.5t-15 -38.5q0 -51 50 -51q21 0 36 13.5t15 37.5zM416 241q0 2 -4.5 9t-5.5 11q-34 106 -96 301l-13 52q-3 10 -5 10q-4 0 -6 -10
q-5 -29 -12 -51q-30 -95 -93 -300q-1 -4 -5.5 -12.5t-4.5 -10.5q0 -5 9 -5q19 0 58 1t58 1q48 0 94 -1q2 0 8 -1h9q9 0 9 6z" />
    <glyph glyph-name="Ccedilla" unicode="&#xc7;" horiz-adv-x="586" 
d="M540 219q0 -26 -7 -59q-30 -143 -179 -164q-38 -5 -38 -31q0 -6 4 -6q2 0 5.5 1t4.5 1q35 0 56 -17.5t21 -45.5q0 -36 -33 -58.5t-84 -22.5q-36 0 -72 15q8 16 10 37q32 -9 56 -9q57 0 57 34q0 30 -39 30q-15 0 -26 -3q-27 6 -22 6q9 22 24 47q6 10 6 13q0 6 -23 10
q-202 34 -202 332q0 370 259 370q220 0 221 -233q-12 2 -34 2q-25 0 -45 -3l-1 20q-3 62 -35 99q-37 44 -108 44q-91 0 -133 -64q-45 -70 -45 -228q0 -278 174 -278q145 0 148 181q18 -6 41 -6q19 0 38 4q1 -13 1 -18z" />
    <glyph glyph-name="Eacute" unicode="&#xc9;" horiz-adv-x="539" 
d="M396 859q-44 -48 -114 -137q-21 3 -29 3q-19 0 -41 -3q29 47 82 137q14 4 50 4q38 0 52 -4zM466 0q-71 4 -181 4q-113 0 -201 -4q3 152 3 326q0 168 -3 367q85 -4 195 -4q109 0 178 4q-2 -24 -2 -38q0 -19 2 -40q-104 3 -258 3q-25 0 -30 -3.5t-5 -21.5q-1 -59 -1 -163
v-22q0 -15 4.5 -18.5t22.5 -3.5h18q61 0 237 4q-3 -21 -3 -41t3 -37q-102 3 -235 3h-20q-17 0 -22 -4t-5 -19v-193q0 -17 4.5 -20.5t25.5 -3.5q187 0 273 4q-3 -22 -3 -44q0 -18 3 -35z" />
    <glyph glyph-name="Ntilde" unicode="&#xd1;" horiz-adv-x="663" 
d="M478 842l-1 -9q-4 -40 -27 -68q-26 -32 -65 -32q-27 0 -67 23.5t-56 23.5q-35 0 -47 -51q-13 3 -23 3q-11 0 -26 -3l1 9q5 43 32.5 73t60.5 30q27 0 67 -23.5t61 -23.5q34 0 45 48q14 -4 23 -4q10 0 22 4zM579 694q-2 -114 -2 -325v-369q-30 4 -58 4q-33 0 -54 -4
q-150 317 -257 532q-9 13 -25 43q-15 40 -21 40q-7 0 -7 -17q0 -14 3 -43t3 -43v-185q0 -207 2 -327q-18 5 -37 5q-20 0 -43 -5q3 153 3 327q0 186 -3 367q30 -4 71 -4q34 0 57 4q13 -27 244 -496q18 -36 29 -68q14 -39 19 -39q4 0 4 14q0 16 -2.5 49t-2.5 49v166
q0 180 -2 325q24 -5 43 -5t36 5z" />
    <glyph glyph-name="Odieresis" unicode="&#xd6;" horiz-adv-x="645" 
d="M456 748q-16 3 -42 3t-44 -3q2 15 2 43t-2 48q18 -3 45 -3q25 0 41 3q-2 -20 -2 -47q0 -29 2 -44zM275 749q-16 2 -45 2t-43 -2q1 12 1 44q0 33 -1 47q12 -1 45 -1q32 0 43 1q-2 -16 -2 -42q0 -28 2 -49zM586 337q0 -350 -261 -350q-127 0 -195 88q-72 93 -72 271
q0 171 68 263t199 92q261 0 261 -364zM508 340q0 149 -55 226q-49 68 -130 68q-186 0 -186 -291q0 -144 50 -219q48 -71 135 -71q186 0 186 287z" />
    <glyph glyph-name="Udieresis" unicode="&#xdc;" horiz-adv-x="614" 
d="M438 748q-16 3 -42 3t-44 -3q2 15 2 43t-2 48q18 -3 45 -3q25 0 41 3q-2 -20 -2 -47q0 -29 2 -44zM257 749q-16 2 -45 2t-43 -2q1 12 1 44q0 33 -1 47q12 -1 45 -1q32 0 43 1q-2 -16 -2 -42q0 -28 2 -49zM531 238q0 -132 -52.5 -191.5t-171.5 -59.5q-109 0 -165 63
t-56 180v8q0 41 1 118.5t1 120.5q0 120 -2 217q26 -5 42 -5q18 0 36 5q-1 -58 -1 -212q0 -158 1 -245q2 -179 145 -179q78 0 111 45q31 42 32 137l2 263q0 101 -2 191q24 -5 44 -5q18 0 35 5q-1 -63 -1 -181q0 -45 1 -133v-138v-4z" />
    <glyph glyph-name="aacute" unicode="&#xe1;" horiz-adv-x="503" 
d="M369 709q-44 -48 -114 -137q-21 3 -29 3q-19 0 -41 -3q29 47 82 137q14 4 50 4q38 0 52 -4zM437 0h-13q-43 0 -64 -4q-3 35 -3 67q0 14 -4 14q-3 0 -10 -16q-33 -74 -131 -74q-76 0 -116.5 38t-40.5 106q0 106 90 143q39 16 169 28q37 3 37 33v11q0 56 -23.5 78.5
t-77.5 22.5q-57 0 -80 -17t-23 -55q0 -5 1 -12.5t1 -8.5q-17 3 -38 3q-17 0 -36 -3q0 2 -1 10t-1 10q0 71 53 108q48 33 126 33q122 0 158 -80q15 -34 15 -96v-100q-1 -67 -1 -88q0 -66 13 -151zM353 248v2q0 4 -3 4q1 0 -11 -3q-23 -5 -63 -9q-23 -2 -65 -8
q-84 -19 -84 -104q0 -36 25.5 -56.5t62.5 -20.5q105 0 129 90q7 27 7 55q0 9 1 25t1 25z" />
    <glyph glyph-name="agrave" unicode="&#xe0;" horiz-adv-x="503" 
d="M320 578q-8 1 -29 1h-1q-19 0 -28 -1q-42 51 -118 143q25 2 51 2q27 0 47 -2q28 -51 78 -143zM437 0h-13q-43 0 -64 -4q-3 35 -3 67q0 14 -4 14q-3 0 -10 -16q-33 -74 -131 -74q-76 0 -116.5 38t-40.5 106q0 106 90 143q39 16 169 28q37 3 37 33v11q0 56 -23.5 78.5
t-77.5 22.5q-57 0 -80 -17t-23 -55q0 -5 1 -12.5t1 -8.5q-17 3 -38 3q-17 0 -36 -3q0 2 -1 10t-1 10q0 71 53 108q48 33 126 33q122 0 158 -80q15 -34 15 -96v-100q-1 -67 -1 -88q0 -66 13 -151zM353 248v2q0 4 -3 4q1 0 -11 -3q-23 -5 -63 -9q-23 -2 -65 -8
q-84 -19 -84 -104q0 -36 25.5 -56.5t62.5 -20.5q105 0 129 90q7 27 7 55q0 9 1 25t1 25z" />
    <glyph glyph-name="acircumflex" unicode="&#xe2;" horiz-adv-x="503" 
d="M375 576q-22 3 -42 3q-8 0 -29 -3q-13 21 -41 54q-5 8 -10.5 17t-11.5 9q-7 0 -12.5 -9.5t-10.5 -17.5q-30 -36 -41 -53q-21 3 -28 3q-20 0 -42 -3q36 47 97 137q26 -3 37 -3t37 3q14 -24 56 -81q40 -52 41 -56zM437 0h-13q-43 0 -64 -4q-3 35 -3 67q0 14 -4 14
q-3 0 -10 -16q-33 -74 -131 -74q-76 0 -116.5 38t-40.5 106q0 106 90 143q39 16 169 28q37 3 37 33v11q0 56 -23.5 78.5t-77.5 22.5q-57 0 -80 -17t-23 -55q0 -5 1 -12.5t1 -8.5q-17 3 -38 3q-17 0 -36 -3q0 2 -1 10t-1 10q0 71 53 108q48 33 126 33q122 0 158 -80
q15 -34 15 -96v-100q-1 -67 -1 -88q0 -66 13 -151zM353 248v2q0 4 -3 4q1 0 -11 -3q-23 -5 -63 -9q-23 -2 -65 -8q-84 -19 -84 -104q0 -36 25.5 -56.5t62.5 -20.5q105 0 129 90q7 27 7 55q0 9 1 25t1 25z" />
    <glyph glyph-name="adieresis" unicode="&#xe4;" horiz-adv-x="503" 
d="M384 598q-16 3 -42 3t-44 -3q2 15 2 43t-2 48q18 -3 45 -3q25 0 41 3q-1 -10 -1 -29v-33q0 -22 1 -29zM203 599q-16 2 -45 2t-43 -2q1 12 1 44q0 33 -1 47q12 -1 45 -1q32 0 43 1q-2 -16 -2 -42q0 -28 2 -49zM437 0h-13q-43 0 -64 -4q-3 35 -3 67q0 14 -4 14
q-3 0 -10 -16q-33 -74 -131 -74q-76 0 -116.5 38t-40.5 106q0 106 90 143q39 16 169 28q37 3 37 33v11q0 56 -23.5 78.5t-77.5 22.5q-57 0 -80 -17t-23 -55q0 -5 1 -12.5t1 -8.5q-17 3 -38 3q-17 0 -36 -3q0 2 -1 10t-1 10q0 71 53 108q48 33 126 33q122 0 158 -80
q15 -34 15 -96v-100q-1 -67 -1 -88q0 -66 13 -151zM353 248v2q0 4 -3 4q1 0 -11 -3q-23 -5 -63 -9q-23 -2 -65 -8q-84 -19 -84 -104q0 -36 25.5 -56.5t62.5 -20.5q105 0 129 90q7 27 7 55q0 9 1 25t1 25z" />
    <glyph glyph-name="atilde" unicode="&#xe3;" horiz-adv-x="503" 
d="M397 692l-1 -9q-4 -40 -27 -68q-26 -32 -65 -32q-27 0 -67 23.5t-56 23.5q-35 0 -47 -51q-13 3 -23 3q-11 0 -26 -3l1 9q5 43 32.5 73t60.5 30q27 0 67 -23.5t61 -23.5q34 0 45 48q14 -4 23 -4q10 0 22 4zM437 0h-13q-43 0 -64 -4q-3 35 -3 67q0 14 -4 14q-3 0 -10 -16
q-33 -74 -131 -74q-76 0 -116.5 38t-40.5 106q0 106 90 143q39 16 169 28q37 3 37 33v11q0 56 -23.5 78.5t-77.5 22.5q-57 0 -80 -17t-23 -55q0 -5 1 -12.5t1 -8.5q-17 3 -38 3q-17 0 -36 -3q0 2 -1 10t-1 10q0 71 53 108q48 33 126 33q122 0 158 -80q15 -34 15 -96v-100
q-1 -67 -1 -88q0 -66 13 -151zM353 248v2q0 4 -3 4q1 0 -11 -3q-23 -5 -63 -9q-23 -2 -65 -8q-84 -19 -84 -104q0 -36 25.5 -56.5t62.5 -20.5q105 0 129 90q7 27 7 55q0 9 1 25t1 25z" />
    <glyph glyph-name="aring" unicode="&#xe5;" horiz-adv-x="503" 
d="M348 652q0 -48 -29.5 -74.5t-69.5 -26.5t-67 25q-30 27 -30 75q0 47 31 75q27 25 67 25t67 -25q31 -27 31 -74zM437 0h-13q-43 0 -64 -4q-3 35 -3 67q0 14 -4 14q-3 0 -10 -16q-33 -74 -131 -74q-76 0 -116.5 38t-40.5 106q0 106 90 143q39 16 169 28q37 3 37 33v11
q0 56 -23.5 78.5t-77.5 22.5q-57 0 -80 -17t-23 -55q0 -5 1 -12.5t1 -8.5q-17 3 -38 3q-17 0 -36 -3q0 2 -1 10t-1 10q0 71 53 108q48 33 126 33q122 0 158 -80q15 -34 15 -96v-100q-1 -67 -1 -88q0 -66 13 -151zM306 651q0 29 -16.5 45t-39.5 16t-39.5 -16t-16.5 -45
t16 -44.5t39 -15.5t40 16t17 44zM353 248v2q0 4 -3 4q1 0 -11 -3q-23 -5 -63 -9q-23 -2 -65 -8q-84 -19 -84 -104q0 -36 25.5 -56.5t62.5 -20.5q105 0 129 90q7 27 7 55q0 9 1 25t1 25z" />
    <glyph glyph-name="ccedilla" unicode="&#xe7;" horiz-adv-x="465" 
d="M426 334q-25 4 -41 4q-19 0 -38 -5l-2 16q-12 99 -95 99q-115 0 -115 -208q0 -189 112 -189q47 0 73.5 34.5t27.5 93.5q20 -10 46 -10q17 0 31 5q-17 -165 -141 -185q-31 -5 -31 -27q0 -3 4 -3q2 0 5.5 1t4.5 1q31 0 54 -18t23 -45q0 -36 -33 -58.5t-84 -22.5
q-36 0 -72 15q8 16 10 37q32 -9 56 -9q57 0 57 36q0 24 -31 24q-11 0 -21 -3q-10 4 -35 10q6 14 18 36q9 18 9 20q0 5 -12 7q-151 28 -151 251q0 132 52.5 203t151.5 71q148 0 165 -162z" />
    <glyph glyph-name="eacute" unicode="&#xe9;" horiz-adv-x="493" 
d="M369 709q-44 -48 -114 -137q-21 3 -29 3q-19 0 -41 -3q29 47 82 137q14 4 50 4q38 0 52 -4zM446 143q-25 -157 -188 -157q-204 0 -204 250q0 130 55.5 205t151.5 75q86 0 134 -63t48 -187q0 -6 -1 -29q-59 4 -161 4h-132q-12 0 -15 -3.5t-3 -13.5v-7q0 -78 34.5 -121.5
t96.5 -43.5q95 0 113 93q30 -4 49 -4q11 0 22 2zM362 327q0 8 -1 15q-15 108 -107 108q-47 0 -79.5 -36t-42.5 -95q-1 -6 -1 -11q0 -13 22 -13q49 -1 65 -1q60 0 120 4q17 1 20.5 5.5t3.5 23.5z" />
    <glyph glyph-name="egrave" unicode="&#xe8;" horiz-adv-x="493" 
d="M329 578q-8 1 -29 1h-1q-19 0 -28 -1q-42 51 -118 143q25 2 51 2q27 0 47 -2q28 -51 78 -143zM446 143q-25 -157 -188 -157q-204 0 -204 250q0 130 55.5 205t151.5 75q86 0 134 -63t48 -187q0 -6 -1 -29q-59 4 -161 4h-132q-12 0 -15 -3.5t-3 -13.5v-7q0 -78 34.5 -121.5
t96.5 -43.5q95 0 113 93q30 -4 49 -4q11 0 22 2zM362 327q0 8 -1 15q-15 108 -107 108q-47 0 -79.5 -36t-42.5 -95q-1 -6 -1 -11q0 -13 22 -13q49 -1 65 -1q60 0 120 4q17 1 20.5 5.5t3.5 23.5z" />
    <glyph glyph-name="ecircumflex" unicode="&#xea;" horiz-adv-x="493" 
d="M384 576q-22 3 -42 3q-8 0 -29 -3q-13 21 -41 54q-5 8 -10.5 17t-11.5 9q-7 0 -12.5 -9.5t-10.5 -17.5q-30 -36 -41 -53q-21 3 -28 3q-20 0 -42 -3q36 47 97 137q26 -3 37 -3t37 3q14 -24 56 -81q40 -52 41 -56zM446 143q-25 -157 -188 -157q-204 0 -204 250
q0 130 55.5 205t151.5 75q86 0 134 -63t48 -187q0 -6 -1 -29q-59 4 -161 4h-132q-12 0 -15 -3.5t-3 -13.5v-7q0 -78 34.5 -121.5t96.5 -43.5q95 0 113 93q30 -4 49 -4q11 0 22 2zM362 327q0 8 -1 15q-15 108 -107 108q-47 0 -79.5 -36t-42.5 -95q-1 -6 -1 -11q0 -13 22 -13
q49 -1 65 -1q60 0 120 4q17 1 20.5 5.5t3.5 23.5z" />
    <glyph glyph-name="edieresis" unicode="&#xeb;" horiz-adv-x="493" 
d="M393 598q-16 3 -42 3t-44 -3q2 15 2 43t-2 48q18 -3 45 -3q25 0 41 3q-2 -20 -2 -47q0 -29 2 -44zM212 599q-16 2 -45 2t-43 -2q1 12 1 44q0 33 -1 47q12 -1 45 -1q32 0 43 1q-2 -16 -2 -42q0 -28 2 -49zM446 143q-25 -157 -188 -157q-204 0 -204 250q0 130 55.5 205
t151.5 75q86 0 134 -63t48 -187q0 -6 -1 -29q-59 4 -161 4h-132q-12 0 -15 -3.5t-3 -13.5v-7q0 -78 34.5 -121.5t96.5 -43.5q95 0 113 93q30 -4 49 -4q11 0 22 2zM362 327q0 8 -1 15q-15 108 -107 108q-47 0 -79.5 -36t-42.5 -95q-1 -6 -1 -11q0 -13 22 -13q49 -1 65 -1
q60 0 120 4q17 1 20.5 5.5t3.5 23.5z" />
    <glyph glyph-name="iacute" unicode="&#xed;" 
d="M243 709q-44 -48 -114 -137q-21 3 -29 3q-19 0 -41 -3q29 47 82 137q14 4 50 4q38 0 52 -4zM163 0q-24 5 -40 5q-22 0 -39 -5q3 105 3 239q0 131 -3 261q18 -5 40 -5q15 0 39 5q-2 -85 -2 -257q0 -170 2 -243z" />
    <glyph glyph-name="igrave" unicode="&#xec;" 
d="M176 578q-8 1 -29 1h-1q-19 0 -28 -1q-42 51 -118 143q25 2 51 2q27 0 47 -2q28 -51 78 -143zM163 0q-24 5 -40 5q-22 0 -39 -5q3 105 3 239q0 131 -3 261q18 -5 40 -5q15 0 39 5q-2 -85 -2 -257q0 -170 2 -243z" />
    <glyph glyph-name="icircumflex" unicode="&#xee;" 
d="M258 576q-22 3 -42 3q-8 0 -29 -3q-13 21 -41 54q-5 8 -10.5 17t-11.5 9q-7 0 -12.5 -9.5t-10.5 -17.5q-30 -36 -41 -53q-21 3 -28 3q-20 0 -42 -3q36 47 97 137q26 -3 37 -3t37 3q14 -24 56 -81q40 -52 41 -56zM163 0q-24 5 -40 5q-22 0 -39 -5q3 105 3 239
q0 131 -3 261q18 -5 40 -5q15 0 39 5q-2 -85 -2 -257q0 -170 2 -243z" />
    <glyph glyph-name="idieresis" unicode="&#xef;" 
d="M258 598q-16 3 -42 3t-44 -3q2 15 2 43t-2 48q18 -3 45 -3q25 0 41 3q-2 -20 -2 -47q0 -29 2 -44zM77 599q-16 2 -45 2t-43 -2q1 12 1 44q0 33 -1 47q12 -1 45 -1q32 0 43 1q-2 -16 -2 -42q0 -28 2 -49zM163 0q-24 5 -40 5q-22 0 -39 -5q3 105 3 239q0 131 -3 261
q18 -5 40 -5q15 0 39 5q-2 -85 -2 -257q0 -170 2 -243z" />
    <glyph glyph-name="ntilde" unicode="&#xf1;" horiz-adv-x="531" 
d="M424 692l-1 -9q-4 -40 -27 -68q-26 -32 -65 -32q-27 0 -67 23.5t-56 23.5q-35 0 -47 -51q-13 3 -23 3q-11 0 -26 -3l1 9q5 43 32.5 73t60.5 30q27 0 67 -23.5t61 -23.5q34 0 45 48q14 -4 23 -4q10 0 22 4zM453 0q-16 4 -37 4t-41 -4q2 69 2 172q0 67 -1 155q-1 57 -15 84
q-20 39 -73 39q-48 0 -81 -32q-51 -49 -51 -144v-37q1 -30 1 -45l1 -192q-27 4 -42 4q-16 0 -36 -4q1 63 1 161v104q0 97 -3 153t-7 82q19 -4 38 -4t40 4q2 -12 2 -28q0 -11 -1.5 -32.5t-1.5 -33.5q0 -8 2 -8q3 0 8 12q4 9 7.5 17t12.5 22q46 63 127 63q73 0 110 -44.5
t37 -121.5v-123q0 -162 1 -223z" />
    <glyph glyph-name="oacute" unicode="&#xf3;" horiz-adv-x="512" 
d="M369 709q-44 -48 -114 -137q-21 3 -29 3q-19 0 -41 -3q29 47 82 137q14 4 50 4q38 0 52 -4zM462 250q0 -129 -53.5 -197t-150.5 -68t-150.5 68t-53.5 197t53.5 197t150.5 68t150.5 -68t53.5 -197zM384 250q0 198 -126 198t-126 -198t126 -198t126 198z" />
    <glyph glyph-name="ograve" unicode="&#xf2;" horiz-adv-x="512" 
d="M320 578q-8 1 -29 1h-1q-19 0 -28 -1q-42 51 -118 143q25 2 51 2q27 0 47 -2q28 -51 78 -143zM462 250q0 -129 -53.5 -197t-150.5 -68t-150.5 68t-53.5 197t53.5 197t150.5 68t150.5 -68t53.5 -197zM384 250q0 198 -126 198t-126 -198t126 -198t126 198z" />
    <glyph glyph-name="ocircumflex" unicode="&#xf4;" horiz-adv-x="512" 
d="M384 576q-22 3 -42 3q-8 0 -29 -3q-13 21 -41 54q-5 8 -10.5 17t-11.5 9q-7 0 -12.5 -9.5t-10.5 -17.5q-30 -36 -41 -53q-21 3 -28 3q-20 0 -42 -3q36 47 97 137q26 -3 37 -3t37 3q14 -24 56 -81q40 -52 41 -56zM462 250q0 -129 -53.5 -197t-150.5 -68t-150.5 68
t-53.5 197t53.5 197t150.5 68t150.5 -68t53.5 -197zM384 250q0 198 -126 198t-126 -198t126 -198t126 198z" />
    <glyph glyph-name="odieresis" unicode="&#xf6;" horiz-adv-x="512" 
d="M393 598q-16 3 -42 3t-44 -3q2 15 2 43t-2 48q18 -3 45 -3q25 0 41 3q-2 -20 -2 -47q0 -29 2 -44zM212 599q-16 2 -45 2t-43 -2q1 12 1 44q0 33 -1 47q12 -1 45 -1q32 0 43 1q-2 -16 -2 -42q0 -28 2 -49zM462 250q0 -129 -53.5 -197t-150.5 -68t-150.5 68t-53.5 197
t53.5 197t150.5 68t150.5 -68t53.5 -197zM384 250q0 198 -126 198t-126 -198t126 -198t126 198z" />
    <glyph glyph-name="otilde" unicode="&#xf5;" horiz-adv-x="512" 
d="M406 692l-1 -9q-4 -40 -27 -68q-26 -32 -65 -32q-27 0 -67 23.5t-56 23.5q-35 0 -47 -51q-13 3 -23 3q-11 0 -26 -3l1 9q5 43 32.5 73t60.5 30q27 0 67 -23.5t61 -23.5q34 0 45 48q14 -4 23 -4q10 0 22 4zM462 250q0 -129 -53.5 -197t-150.5 -68t-150.5 68t-53.5 197
t53.5 197t150.5 68t150.5 -68t53.5 -197zM384 250q0 198 -126 198t-126 -198t126 -198t126 198z" />
    <glyph glyph-name="uacute" unicode="&#xfa;" horiz-adv-x="533" 
d="M378 709q-44 -48 -114 -137q-21 3 -29 3q-19 0 -41 -3q29 47 82 137q14 4 50 4q38 0 52 -4zM461 2q-19 4 -38 4t-40 -4q-3 18 -3 42q0 9 2 26t2 26q0 8 -3 8q-5 -12 -14 -28.5t-31 -45.5q-42 -40 -109 -40q-73 0 -111 47q-37 44 -37 123v119q0 161 -1 223q19 -4 40 -4
t39 4q-2 -69 -2 -223v-104q0 -68 22 -95.5t67 -27.5q66 0 102 58q30 48 30 118q0 35 -1 135q-1 115 -1 139q22 -4 40 -4t38 4q-1 -63 -1 -165q0 -103 1 -170q2 -120 9 -165z" />
    <glyph glyph-name="ugrave" unicode="&#xf9;" horiz-adv-x="533" 
d="M329 578q-8 1 -29 1h-1q-19 0 -28 -1q-42 51 -118 143q25 2 51 2q27 0 47 -2q28 -51 78 -143zM461 2q-19 4 -38 4t-40 -4q-3 18 -3 42q0 9 2 26t2 26q0 8 -3 8q-5 -12 -14 -28.5t-31 -45.5q-42 -40 -109 -40q-73 0 -111 47q-37 44 -37 123v119q0 161 -1 223q19 -4 40 -4
t39 4q-2 -69 -2 -223v-104q0 -68 22 -95.5t67 -27.5q66 0 102 58q30 48 30 118q0 35 -1 135q-1 115 -1 139q22 -4 40 -4t38 4q-1 -63 -1 -165q0 -103 1 -170q2 -120 9 -165z" />
    <glyph glyph-name="ucircumflex" unicode="&#xfb;" horiz-adv-x="533" 
d="M402 576q-22 3 -42 3q-8 0 -29 -3q-13 21 -41 54q-5 8 -10.5 17t-11.5 9q-7 0 -12.5 -9.5t-10.5 -17.5q-30 -36 -41 -53q-21 3 -28 3q-20 0 -42 -3q36 47 97 137q26 -3 37 -3t37 3q14 -24 56 -81q40 -52 41 -56zM461 2q-19 4 -38 4t-40 -4q-3 18 -3 42q0 9 2 26t2 26
q0 8 -3 8q-5 -12 -14 -28.5t-31 -45.5q-42 -40 -109 -40q-73 0 -111 47q-37 44 -37 123v119q0 161 -1 223q19 -4 40 -4t39 4q-2 -69 -2 -223v-104q0 -68 22 -95.5t67 -27.5q66 0 102 58q30 48 30 118q0 35 -1 135q-1 115 -1 139q22 -4 40 -4t38 4q-1 -63 -1 -165
q0 -103 1 -170q2 -120 9 -165z" />
    <glyph glyph-name="udieresis" unicode="&#xfc;" horiz-adv-x="533" 
d="M394 598q-16 3 -42 3t-44 -3q2 15 2 43t-2 48q18 -3 45 -3q25 0 41 3q-1 -10 -1 -29v-33q0 -22 1 -29zM213 599q-16 2 -45 2t-43 -2q1 12 1 44q0 33 -1 47q12 -1 45 -1q32 0 43 1q-2 -16 -2 -42q0 -28 2 -49zM461 2q-19 4 -38 4t-40 -4q-3 18 -3 42q0 9 2 26t2 26
q0 8 -3 8q-5 -12 -14 -28.5t-31 -45.5q-42 -40 -109 -40q-73 0 -111 47q-37 44 -37 123v119q0 161 -1 223q19 -4 40 -4t39 4q-2 -69 -2 -223v-104q0 -68 22 -95.5t67 -27.5q66 0 102 58q30 48 30 118q0 35 -1 135q-1 115 -1 139q22 -4 40 -4t38 4q-1 -63 -1 -165
q0 -103 1 -170q2 -120 9 -165z" />
    <glyph glyph-name="degree" unicode="&#xb0;" horiz-adv-x="372" 
d="M332 556q0 -65 -43 -109.5t-104 -44.5q-57 0 -99 40q-45 44 -45 112q0 65 42.5 109t102.5 44t103 -43.5t43 -107.5zM273 555q0 39 -25.5 67t-61.5 28t-61 -28t-25 -67q0 -40 25 -67.5t60 -27.5q36 0 62 28t26 67z" />
    <glyph glyph-name="registered" unicode="&#xae;" horiz-adv-x="784" 
d="M750 347q0 -146 -90 -248q-100 -112 -269 -112t-268 113q-89 101 -89 247t90 248q99 113 268 113t268 -113q90 -102 90 -248zM690 347q0 124 -75 210q-83 95 -224 95t-223 -95q-74 -86 -74 -210t74 -209q82 -95 223 -95t224 95q75 85 75 209zM546 132q-22 4 -34 4
q-14 0 -34 -3q-25 126 -42 157q-14 26 -56 26h-38q-17 0 -21 -3.5t-4 -13.5q0 -121 2 -167q-19 4 -30 4q-14 0 -34 -3l1 208q0 94 -1 233q26 -2 67 -2q13 0 39 1h39q69 0 104 -40q30 -33 30 -83q0 -40 -21 -69q-4 -6 -36.5 -21t-32.5 -17q0 -6 18 -11q28 -8 42 -48
q10 -28 42 -152zM471 450q0 66 -86 66h-55q-11 0 -11 -12q-1 -41 -1 -125q2 -7 10 -7h37q51 0 73 11q33 17 33 67z" />
    <glyph glyph-name="copyright" unicode="&#xa9;" horiz-adv-x="784" 
d="M750 347q0 -146 -90 -248q-100 -112 -269 -112t-268 113q-89 101 -89 247t90 248q99 113 268 113t268 -113q90 -102 90 -248zM690 347q0 124 -75 210q-83 95 -224 95t-223 -95q-74 -86 -74 -210t74 -209q82 -95 223 -95t224 95q75 85 75 209zM565 280q-5 -70 -56 -111
q-46 -38 -111 -38q-78 0 -133 53q-61 61 -61 165t60 164q53 53 130 53q64 0 111 -39q50 -42 57 -113q-19 5 -32 5q-16 0 -33 -5q-5 45 -35 70.5t-69 25.5q-49 0 -83 -38q-39 -44 -39 -122t40 -123q36 -40 87 -40q39 0 68.5 25t34.5 69q15 -5 31 -5q18 0 33 4z" />
    <glyph glyph-name="trademark" unicode="&#x2122;" horiz-adv-x="576" 
d="M537 399q-16 3 -25 3q-8 0 -23 -4q3 112 3 195v19q0 3 1 15.5t1 15.5t-5 5q-1 0 -6 -19l-66 -229q-16 2 -22 2q-8 0 -23 -2q-29 113 -64 229q-1 5 -1.5 11t-3.5 6q-5 -1 -5 -3t1 -15t1 -16v-21q0 -104 2 -193q-15 4 -22 4q-8 0 -23 -3q0 10 1 67q1 42 1 70t-1 78
q-1 59 -1 80q17 -2 40 -2q22 0 37 2q27 -100 54 -193q1 -2 4 -23q2 -11 6 -11q2 0 4 11q2 16 4 23q30 99 54 193q34 -2 39 -2q10 0 38 2q-1 -49 -1 -139q0 -93 1 -156zM225 648q-34 3 -64 3q-7 0 -7 -8v-101q0 -28 1 -75q1 -52 1 -67q-20 2 -25 2t-23 -2q0 24 1 70v70v103
q0 8 -6 8q-37 0 -63 -3q3 28 3 23q0 4 -2 23q54 -1 97 -1q46 0 86 1q-1 -10 -1 -18q0 -11 2 -28z" />
    <glyph glyph-name="notequal" unicode="&#x2260;" horiz-adv-x="578" 
 />
    <glyph glyph-name="infinity" unicode="&#x221e;" horiz-adv-x="608" 
 />
    <glyph glyph-name="plusminus" unicode="&#xb1;" horiz-adv-x="570" 
d="M506 248l-180 2q-9 0 -9 -7v-11q1 -9 1 -11l4 -179q-24 6 -39 6q-16 0 -35 -6l4 176q0 2 1 11v13q0 8 -8 8h-11q-9 -1 -12 -1l-158 -2q3 15 3 34q0 20 -3 37l159 -4q2 0 11 -1h12q7 0 7 8v12q-1 8 -1 10l-4 178q22 -3 39 -3q19 0 35 3l-4 -177q0 -1 -1 -9t-1 -12
q0 -10 9 -10h12q9 1 10 1l159 4q-3 -12 -3 -32q0 -19 3 -38zM496 -69q-97 3 -193 3q-92 0 -232 -3q1 9 1 32q0 22 -1 33q93 -2 230 -2q130 0 195 2q-2 -11 -2 -30t2 -35z" />
    <glyph glyph-name="lessequal" unicode="&#x2264;" horiz-adv-x="455" 
 />
    <glyph glyph-name="mu" unicode="&#xb5;" horiz-adv-x="533" 
d="M461 2q-24 5 -43 5t-35 -5q-3 18 -3 42q0 6 2 25.5t2 26.5q0 5 -2 8q-3 0 -7.5 -10.5t-7.5 -18.5q-27 -48 -57.5 -66.5t-82.5 -18.5q-25 0 -51 12.5t-23 12.5q-3 0 -3 -2q0 3 8 -184q-14 3 -37 3q-24 0 -44 -3q0 94 1 204.5t1 130.5v120q0 156 -1 218q25 -6 43 -6
q19 0 36 6q-3 -103 -3 -223q0 -15 1 -104q0 -40 9 -69q16 -54 80 -54q48 0 81 32q51 49 51 144q0 23 -1 148l-1 126q16 -5 35 -5q18 0 43 5q-1 -63 -1 -165q0 -103 1 -170q2 -120 9 -165z" />
    <glyph glyph-name="mu" unicode="&#x3bc;" horiz-adv-x="533" 
d="M461 2q-24 5 -43 5t-35 -5q-3 18 -3 42q0 6 2 25.5t2 26.5q0 5 -2 8q-3 0 -7.5 -10.5t-7.5 -18.5q-27 -48 -57.5 -66.5t-82.5 -18.5q-25 0 -51 12.5t-23 12.5q-3 0 -3 -2q0 3 8 -184q-14 3 -37 3q-24 0 -44 -3q0 94 1 204.5t1 130.5v120q0 156 -1 218q25 -6 43 -6
q19 0 36 6q-3 -103 -3 -223q0 -15 1 -104q0 -40 9 -69q16 -54 80 -54q48 0 81 32q51 49 51 144q0 23 -1 148l-1 126q16 -5 35 -5q18 0 43 5q-1 -63 -1 -165q0 -103 1 -170q2 -120 9 -165z" />
    <glyph glyph-name="partialdiff" unicode="&#x2202;" horiz-adv-x="567" 
 />
    <glyph glyph-name="summation" unicode="&#x2211;" horiz-adv-x="903" 
 />
    <glyph glyph-name="product" unicode="&#x220f;" horiz-adv-x="903" 
 />
    <glyph glyph-name="pi" unicode="&#x3c0;" horiz-adv-x="903" 
 />
    <glyph glyph-name="integral" unicode="&#x222b;" horiz-adv-x="903" 
 />
    <glyph glyph-name="Omega" unicode="&#x3a9;" horiz-adv-x="903" 
 />
    <glyph glyph-name="Omega" unicode="&#x2126;" horiz-adv-x="903" 
 />
    <glyph glyph-name="logicalnot" unicode="&#xac;" horiz-adv-x="570" 
d="M509 32q-13 2 -32 2q-20 0 -34 -2q4 94 4 131q0 54 -3 71.5t-28 18.5q-35 2 -101 2q-46 0 -133 -2t-121 -2q2 18 2 38t-2 31q84 -3 221 -3q139 0 227 3q-4 -65 -4 -148q0 -84 4 -140z" />
    <glyph glyph-name="radical" unicode="&#x221a;" horiz-adv-x="903" 
 />
    <glyph glyph-name="approxequal" unicode="&#x2248;" horiz-adv-x="903" 
 />
    <glyph glyph-name="approxequal" unicode="&#x22f2;" horiz-adv-x="903" 
 />
    <glyph glyph-name="Delta" unicode="&#x394;" horiz-adv-x="903" 
 />
    <glyph glyph-name="Delta" unicode="&#x2206;" horiz-adv-x="903" 
 />
    <glyph glyph-name="nonbreakingspace" unicode="&#xa0;" horiz-adv-x="903" 
 />
    <glyph glyph-name="Agrave" unicode="&#xc0;" horiz-adv-x="593" 
d="M374 728q-8 1 -29 1h-1q-19 0 -28 -1q-42 51 -118 143q25 2 51 2q27 0 47 -2q28 -51 78 -143zM577 0q-30 3 -47 3q-14 0 -43 -3q-15 45 -46 147q-4 14 -7.5 17t-19.5 3q-76 2 -142 2q-37 0 -88 -1q-23 0 -28 -3t-10 -19q-16 -51 -44 -146q-25 3 -41 3q-19 0 -45 -3
q96 286 226 694q20 -3 51 -3q27 0 53 3q18 -65 105 -321q63 -186 126 -373zM416 241q0 2 -4.5 9t-5.5 11q-34 106 -96 301l-13 52q-3 10 -5 10q-4 0 -6 -10q-5 -29 -12 -51q-30 -95 -93 -300q-1 -4 -5.5 -12.5t-4.5 -10.5q0 -5 9 -5q19 0 58 1t58 1q48 0 94 -1q2 0 8 -1h9
q9 0 9 6z" />
    <glyph glyph-name="Atilde" unicode="&#xc3;" horiz-adv-x="593" 
d="M451 842l-1 -9q-4 -40 -27 -68q-26 -32 -65 -32q-27 0 -67 23.5t-56 23.5q-35 0 -47 -51q-13 3 -23 3q-11 0 -26 -3l1 9q5 43 32.5 73t60.5 30q27 0 67 -23.5t61 -23.5q34 0 45 48q14 -4 23 -4q10 0 22 4zM577 0q-30 3 -47 3q-14 0 -43 -3q-15 45 -46 147q-4 14 -7.5 17
t-19.5 3q-76 2 -142 2q-37 0 -88 -1q-23 0 -28 -3t-10 -19q-16 -51 -44 -146q-25 3 -41 3q-19 0 -45 -3q96 286 226 694q20 -3 51 -3q27 0 53 3q18 -65 105 -321q63 -186 126 -373zM416 241q0 2 -4.5 9t-5.5 11q-34 106 -96 301l-13 52q-3 10 -5 10q-4 0 -6 -10
q-5 -29 -12 -51q-30 -95 -93 -300q-1 -4 -5.5 -12.5t-4.5 -10.5q0 -5 9 -5q19 0 58 1t58 1q48 0 94 -1q2 0 8 -1h9q9 0 9 6z" />
    <glyph glyph-name="Otilde" unicode="&#xd5;" horiz-adv-x="645" 
d="M478 842l-1 -9q-4 -40 -27 -68q-26 -32 -65 -32q-27 0 -67 23.5t-56 23.5q-35 0 -47 -51q-13 3 -23 3q-11 0 -26 -3l1 9q5 43 32.5 73t60.5 30q27 0 67 -23.5t61 -23.5q34 0 45 48q14 -4 23 -4q10 0 22 4zM586 337q0 -350 -261 -350q-127 0 -195 88q-72 93 -72 271
q0 171 68 263t199 92q261 0 261 -364zM508 340q0 149 -55 226q-49 68 -130 68q-186 0 -186 -291q0 -144 50 -219q48 -71 135 -71q186 0 186 287z" />
    <glyph glyph-name="divide" unicode="&#xf7;" horiz-adv-x="570" 
d="M342 479q0 -24 -16.5 -41t-40.5 -17t-41 17t-17 41t17 41.5t41 17.5t40.5 -17.5t16.5 -41.5zM526 240q-88 4 -181 4q-4 0 -301 -4q3 28 3 42q0 17 -3 34q119 -3 263 -3q136 0 219 3q-4 -19 -4 -35q0 -14 4 -41zM342 74q0 -24 -16.5 -41t-40.5 -17t-41 17t-17 41t17 41
t41 17t40.5 -17t16.5 -41z" />
    <glyph glyph-name="lozenge" unicode="&#x25ca;" horiz-adv-x="903" 
 />
    <glyph glyph-name="ydieresis" unicode="&#xff;" horiz-adv-x="452" 
d="M357 598q-16 3 -42 3t-44 -3q2 15 2 43t-2 48q18 -3 45 -3q25 0 41 3q-1 -10 -1 -29v-33q0 -22 1 -29zM176 599q-16 2 -45 2t-43 -2q1 12 1 44q0 33 -1 47q12 -1 45 -1q32 0 43 1q-2 -16 -2 -42q0 -28 2 -49zM437 500l-162 -500q-32 -100 -53 -133q-41 -65 -111 -65
q-34 0 -65 7q4 18 4 36q0 12 -4 36q33 -10 58 -10q37 0 62 28t25 69q0 30 -13 70l-24 66q-48 132 -139 396q31 -3 49 -3q26 0 37 3q34 -113 113 -363q5 -23 13 -57q2 -9 6 -9t6 9q8 42 12 56q24 73 53 183q36 133 50 181q12 -4 37 -4q16 0 46 4z" />
    <glyph glyph-name="Ydieresis" unicode="&#x178;" horiz-adv-x="556" 
d="M402 748q-16 3 -42 3t-44 -3q2 15 2 43t-2 48q18 -3 45 -3q25 0 41 3q-1 -10 -1 -29v-33q0 -22 1 -29zM221 749q-16 2 -45 2t-43 -2q1 12 1 44q0 33 -1 47q12 -1 45 -1q32 0 43 1q-2 -16 -2 -42q0 -28 2 -49zM541 694q-79 -140 -202 -364q-16 -31 -20 -48t-4 -55
q0 -99 1 -227q-17 5 -35 5q-16 0 -42 -5l2 224q0 60 -24 106q-76 135 -202 364q27 -4 47 -4t43 4q56 -103 149 -275q9 -17 17 -49q4 -17 9 -17q4 0 9 18.5t21 47.5q56 102 146 275q21 -4 40 -4q21 0 45 4z" />
    <glyph glyph-name="Acircumflex" unicode="&#xc2;" horiz-adv-x="593" 
d="M420 726q-22 3 -41 3q-8 0 -29 -3q-13 21 -41 54q-5 8 -10.5 17t-11.5 9q-7 0 -12.5 -9.5t-10.5 -17.5q-30 -36 -41 -53q-21 3 -28 3q-20 0 -42 -3q36 47 96 137q26 -3 38 -3q11 0 37 3q46 -64 96 -137zM577 0q-30 3 -47 3q-14 0 -43 -3q-15 45 -46 147q-4 14 -7.5 17
t-19.5 3q-76 2 -142 2q-37 0 -88 -1q-23 0 -28 -3t-10 -19q-16 -51 -44 -146q-25 3 -41 3q-19 0 -45 -3q96 286 226 694q20 -3 51 -3q27 0 53 3q18 -65 105 -321q63 -186 126 -373zM416 241q0 2 -4.5 9t-5.5 11q-34 106 -96 301l-13 52q-3 10 -5 10q-4 0 -6 -10
q-5 -29 -12 -51q-30 -95 -93 -300q-1 -4 -5.5 -12.5t-4.5 -10.5q0 -5 9 -5q19 0 58 1t58 1q48 0 94 -1q2 0 8 -1h9q9 0 9 6z" />
    <glyph glyph-name="Ecircumflex" unicode="&#xca;" horiz-adv-x="539" 
d="M411 726q-22 3 -42 3q-8 0 -29 -3q-13 21 -41 54q-5 8 -10.5 17t-11.5 9q-7 0 -12.5 -9.5t-10.5 -17.5q-30 -36 -41 -53q-21 3 -28 3q-20 0 -42 -3q36 47 97 137q26 -3 37 -3t37 3q14 -24 56 -81q40 -52 41 -56zM466 0q-71 4 -181 4q-113 0 -201 -4q3 152 3 326
q0 168 -3 367q85 -4 195 -4q109 0 178 4q-2 -24 -2 -38q0 -19 2 -40q-104 3 -258 3q-25 0 -30 -3.5t-5 -21.5q-1 -59 -1 -163v-22q0 -15 4.5 -18.5t22.5 -3.5h18q61 0 237 4q-3 -21 -3 -41t3 -37q-102 3 -225 3h-30q-17 0 -22 -4t-5 -19v-193q0 -17 4.5 -20.5t25.5 -3.5
q187 0 273 4q-3 -22 -3 -44q0 -18 3 -35z" />
    <glyph glyph-name="Aacute" unicode="&#xc1;" horiz-adv-x="593" 
d="M396 859q-44 -48 -114 -137q-21 3 -29 3q-19 0 -41 -3q29 47 82 137q14 4 50 4q38 0 52 -4zM577 0q-30 3 -47 3q-14 0 -43 -3q-15 45 -46 147q-4 14 -7.5 17t-19.5 3q-76 2 -142 2q-37 0 -88 -1q-23 0 -28 -3t-10 -19q-16 -51 -44 -146q-25 3 -41 3q-19 0 -45 -3
q96 286 226 694q20 -3 51 -3q27 0 53 3q18 -65 105 -321q63 -186 126 -373zM416 241q0 2 -4.5 9t-5.5 11q-34 106 -96 301l-13 52q-3 10 -5 10q-4 0 -6 -10q-5 -29 -12 -51q-30 -95 -93 -300q-1 -4 -5.5 -12.5t-4.5 -10.5q0 -5 9 -5q19 0 58 1t58 1q48 0 94 -1q2 0 8 -1h9
q9 0 9 6z" />
    <glyph glyph-name="Edieresis" unicode="&#xcb;" horiz-adv-x="539" 
d="M402 748q-16 3 -42 3t-44 -3q2 15 2 43t-2 48q18 -3 45 -3q25 0 41 3q-2 -20 -2 -47q0 -29 2 -44zM221 749q-16 2 -45 2t-43 -2q1 12 1 44q0 33 -1 47q12 -1 45 -1q32 0 43 1q-2 -16 -2 -42q0 -28 2 -49zM466 0q-71 4 -181 4q-113 0 -201 -4q3 152 3 326q0 168 -3 367
q85 -4 195 -4q109 0 178 4q-2 -24 -2 -38q0 -19 2 -40q-104 3 -258 3q-25 0 -30 -3.5t-5 -21.5q-1 -59 -1 -163v-22q0 -15 4.5 -18.5t22.5 -3.5h18q61 0 237 4q-3 -21 -3 -41t3 -37q-102 3 -225 3h-30q-17 0 -22 -4t-5 -19v-193q0 -17 4.5 -20.5t25.5 -3.5q187 0 273 4
q-3 -22 -3 -44q0 -18 3 -35z" />
    <glyph glyph-name="Egrave" unicode="&#xc8;" horiz-adv-x="539" 
d="M338 728q-8 1 -29 1h-1q-19 0 -28 -1q-42 51 -118 143q25 2 51 2q27 0 47 -2q28 -51 78 -143zM466 0q-71 4 -181 4q-113 0 -201 -4q3 152 3 326q0 168 -3 367q85 -4 195 -4q109 0 178 4q-2 -24 -2 -38q0 -19 2 -40q-104 3 -258 3q-25 0 -30 -3.5t-5 -21.5q-1 -59 -1 -163
v-22q0 -15 4.5 -18.5t22.5 -3.5h18q61 0 237 4q-3 -21 -3 -41t3 -37q-102 3 -225 3h-30q-17 0 -22 -4t-5 -19v-193q0 -17 4.5 -20.5t25.5 -3.5q187 0 273 4q-3 -22 -3 -44q0 -18 3 -35z" />
    <glyph glyph-name="Iacute" unicode="&#xcd;" 
d="M234 869q-44 -48 -114 -137q-21 3 -29 3q-19 0 -41 -3q29 47 82 137q14 4 50 4q38 0 52 -4zM165 0q-21 5 -39 5q-19 0 -44 -5q3 139 3 332q0 160 -3 362q17 -4 38 -4t45 4l-2 -362q0 -201 2 -332z" />
    <glyph glyph-name="Icircumflex" unicode="&#xce;" 
d="M258 726q-22 3 -42 3q-8 0 -29 -3q-13 21 -41 54q-5 8 -10.5 17t-11.5 9q-7 0 -12.5 -9.5t-10.5 -17.5q-30 -36 -41 -53q-21 3 -28 3q-20 0 -42 -3q36 47 97 137q26 -3 37 -3t37 3q14 -24 56 -81q40 -52 41 -56zM165 0q-21 5 -39 5q-19 0 -44 -5q3 139 3 332
q0 160 -3 362q17 -4 38 -4t45 4l-2 -362q0 -201 2 -332z" />
    <glyph glyph-name="Idieresis" unicode="&#xcf;" 
d="M258 748q-16 3 -42 3t-44 -3q2 15 2 43t-2 48q18 -3 45 -3q25 0 41 3q-1 -10 -1 -29v-33q0 -22 1 -29zM77 749q-16 2 -45 2t-43 -2q1 12 1 44q0 33 -1 47q12 -1 45 -1q32 0 43 1q-2 -16 -2 -42q0 -28 2 -49zM165 0q-21 5 -39 5q-19 0 -44 -5q3 139 3 332q0 160 -3 362
q17 -4 38 -4t45 4l-2 -362q0 -201 2 -332z" />
    <glyph glyph-name="Igrave" unicode="&#xcc;" 
d="M185 738q-8 1 -29 1h-1q-19 0 -28 -1q-42 51 -118 143q25 2 51 2q27 0 47 -2q28 -51 78 -143zM165 0q-21 5 -39 5q-19 0 -44 -5q3 139 3 332q0 160 -3 362q17 -4 38 -4t45 4l-2 -362q0 -201 2 -332z" />
    <glyph glyph-name="Oacute" unicode="&#xd3;" horiz-adv-x="645" 
d="M468 859q-44 -48 -114 -137q-21 3 -29 3q-19 0 -41 -3q29 47 82 137q14 4 50 4q38 0 52 -4zM586 337q0 -350 -261 -350q-127 0 -195 88q-72 93 -72 271q0 171 68 263t199 92q261 0 261 -364zM508 340q0 149 -55 226q-49 68 -130 68q-186 0 -186 -291q0 -144 50 -219
q48 -71 135 -71q186 0 186 287z" />
    <glyph glyph-name="Ocircumflex" unicode="&#xd4;" horiz-adv-x="645" 
d="M447 726q-22 3 -42 3q-8 0 -29 -3q-13 21 -41 54q-5 8 -10.5 17t-11.5 9q-7 0 -12.5 -9.5t-10.5 -17.5q-30 -36 -41 -53q-21 3 -28 3q-20 0 -42 -3q36 47 97 137q26 -3 37 -3t37 3q14 -24 56 -81q40 -52 41 -56zM586 337q0 -350 -261 -350q-127 0 -195 88q-72 93 -72 271
q0 171 68 263t199 92q261 0 261 -364zM508 340q0 149 -55 226q-49 68 -130 68q-186 0 -186 -291q0 -144 50 -219q48 -71 135 -71q186 0 186 287z" />
    <glyph glyph-name="Ograve" unicode="&#xd2;" horiz-adv-x="645" 
d="M356 728q-8 1 -29 1h-1q-19 0 -28 -1q-42 51 -118 143q25 2 51 2q27 0 47 -2q28 -51 78 -143zM586 337q0 -350 -261 -350q-127 0 -195 88q-72 93 -72 271q0 171 68 263t199 92q261 0 261 -364zM508 340q0 149 -55 226q-49 68 -130 68q-186 0 -186 -291q0 -144 50 -219
q48 -71 135 -71q186 0 186 287z" />
    <glyph glyph-name="Uacute" unicode="&#xda;" horiz-adv-x="614" 
d="M414 859q-44 -48 -114 -137q-21 3 -29 3q-19 0 -41 -3q29 47 82 137q14 4 50 4q38 0 52 -4zM531 238q0 -132 -52.5 -191.5t-171.5 -59.5q-109 0 -165 63t-56 180v8q0 41 1 118.5t1 120.5q0 120 -2 217q26 -5 42 -5q18 0 36 5q-1 -58 -1 -212q0 -158 1 -245
q2 -179 145 -179q78 0 111 45q31 42 32 137l2 263q0 101 -2 191q24 -5 44 -5q18 0 35 5q-1 -63 -1 -181q0 -45 1 -133v-138v-4z" />
    <glyph glyph-name="Ucircumflex" unicode="&#xdb;" horiz-adv-x="614" 
d="M437 726q-22 3 -42 3q-8 0 -29 -3q-13 21 -41 54q-5 8 -10.5 17t-11.5 9q-7 0 -12.5 -9.5t-10.5 -17.5q-26 -31 -40 -53q-21 3 -29 3q-20 0 -42 -3q36 47 97 137q26 -3 37 -3t37 3q14 -24 56 -81q40 -52 41 -56zM531 238q0 -132 -52.5 -191.5t-171.5 -59.5
q-109 0 -165 63t-56 180v8q0 41 1 118.5t1 120.5q0 120 -2 217q26 -5 42 -5q18 0 36 5q-1 -58 -1 -212q0 -158 1 -245q2 -179 145 -179q78 0 111 45q31 42 32 137l2 263q0 101 -2 191q24 -5 44 -5q18 0 35 5q-1 -63 -1 -181q0 -45 1 -133v-138v-4z" />
    <glyph glyph-name="Ugrave" unicode="&#xd9;" horiz-adv-x="614" 
d="M347 728q-8 1 -29 1h-1q-19 0 -28 -1q-42 51 -118 143q25 2 51 2q27 0 47 -2q28 -51 78 -143zM531 238q0 -132 -52.5 -191.5t-171.5 -59.5q-109 0 -165 63t-56 180v8q0 41 1 118.5t1 120.5q0 120 -2 217q26 -5 42 -5q18 0 36 5q-1 -58 -1 -212q0 -158 1 -245
q2 -179 145 -179q78 0 111 45q31 42 32 137l2 263q0 101 -2 191q24 -5 44 -5q18 0 35 5q-1 -63 -1 -181q0 -45 1 -133v-138v-4z" />
    <glyph glyph-name="Euro" unicode="&#x20ac;" horiz-adv-x="565" 
d="M511 183q0 -81 -47 -132q-56 -62 -166 -62q-191 0 -230 227q-3 18 -6 18q-8 0 -23 -2t-21 -2q3 14 3 30q0 14 -3 31q6 0 19 -1.5t20 -1.5q3 0 3 4q0 7 -1 20.5t-1 20.5q0 8 1 25t1 25q0 3 -3 3q-7 0 -19 -1q-15 -1 -20 -1q3 15 3 29q0 15 -3 31q46 -3 43 -3q5 0 5.5 7.5
t0.5 14.5q38 238 240 238q146 0 199 -101q-20 -20 -44 -65q-50 99 -164 99q-74 0 -113 -49q-31 -40 -44 -122q-3 -20 -3 -16q0 -6 19 -6h64q42 0 198 3q-14 -19 -34 -60q-82 2 -195 2h-37q-13 0 -16 -4t-3 -26v-47q0 -14 3 -17t16 -3h39q59 0 140 2q-27 -39 -34 -61
q-91 3 -108 3h-30q-19 0 -19 -4q0 2 3 -14q31 -164 154 -164q77 0 110 40q28 35 28 107q17 -6 39 -6q17 0 35 4q0 -2 1 -7v-6z" />
    </font>
</defs>
</svg>
